<?xml version="1.0" encoding="utf-8"?>
<!-- Generator: Adobe Illustrator 26.0.3, SVG Export Plug-In . SVG Version: 6.00 Build 0)  -->
<svg version="1.1" id="Layer_1" xmlns="http://www.w3.org/2000/svg" xmlns:xlink="http://www.w3.org/1999/xlink" x="0px" y="0px"
	 viewBox="0 0 1029.6 548.7" style="enable-background:new 0 0 1029.6 548.7;" xml:space="preserve">
<style type="text/css">
	.st0{fill:#E6E8EA;}
	.st1{fill:#1E2C4F;}
	.st2{fill:#FFFFFF;}
	.st3{fill:#26CEC1;}
	.st4{fill:#E5E5E5;}
	.st5{fill:#FFB7B7;}
	.st6{fill:#2F2E41;}
</style>
<path class="st0" d="M590.1,542l-14.6-6.1l-10-73.2H432.2l-10.9,72.9l-13.1,6.5c-1.5,0.8-2.2,2.6-1.4,4.2c0.5,1.1,1.6,1.7,2.8,1.7
	h179.2c1.7,0,3.1-1.4,3.1-3.1C592,543.6,591.2,542.5,590.1,542z"/>
<path class="st0" d="M827,472.4H172.2c-7.2,0-12.9-5.8-12.9-13v-92.3h680.7v92.3C839.9,466.6,834.1,472.4,827,472.4z"/>
<path class="st1" d="M840.6,410.7h-682V15.6c0-8.6,7-15.6,15.6-15.6H825c8.6,0,15.6,7,15.6,15.6V410.7z"/>
<path class="st2" d="M799.9,382.1H199.3c-6.7,0-12-5.4-12.1-12.1V40.7c0-6.7,5.4-12,12.1-12.1h600.5c6.7,0,12,5.4,12.1,12.1V370
	C811.9,376.7,806.5,382.1,799.9,382.1z"/>
<rect x="219.6" y="153.2" class="st0" width="98.8" height="9.3"/>
<rect x="219.6" y="175.7" class="st0" width="98.8" height="9.3"/>
<rect x="219.6" y="198.7" class="st0" width="98.8" height="9.3"/>
<rect x="219.6" y="221.7" class="st0" width="98.8" height="9.3"/>
<rect x="243" y="250.9" class="st3" width="52" height="8.1"/>
<rect x="471.2" y="210.8" class="st4" width="0.9" height="2.8"/>
<path class="st0" d="M472.1,274h-0.9v-6h0.9V274z M472.1,261.9h-0.9v-6h0.9V261.9z M472.1,249.8h-0.9v-6h0.9V249.8z M472.1,237.7
	h-0.9v-6h0.9V237.7z M472.1,225.7h-0.9v-6h0.9V225.7z"/>
<rect x="471.2" y="280" class="st4" width="0.9" height="2.8"/>
<rect x="574.6" y="210.8" class="st4" width="0.9" height="2.8"/>
<path class="st0" d="M575.6,274h-0.9v-6h0.9V274z M575.6,261.9h-0.9v-6h0.9V261.9z M575.6,249.8h-0.9v-6h0.9V249.8z M575.6,237.7
	h-0.9v-6h0.9V237.7z M575.6,225.7h-0.9v-6h0.9V225.7z"/>
<rect x="574.6" y="280" class="st4" width="0.9" height="2.8"/>
<rect x="626.8" y="155.3" class="st4" width="0.9" height="2.8"/>
<path class="st0" d="M627.8,274.2h-0.9v-5.8h0.9V274.2z M627.8,262.6h-0.9v-5.8h0.9V262.6z M627.8,251h-0.9v-5.8h0.9V251z
	 M627.8,239.4h-0.9v-5.8h0.9V239.4z M627.8,227.8h-0.9V222h0.9V227.8z M627.8,216.2h-0.9v-5.8h0.9V216.2z M627.8,204.6h-0.9v-5.8
	h0.9V204.6z M627.8,193h-0.9v-5.8h0.9V193z M627.8,181.4h-0.9v-5.8h0.9V181.4z M627.8,169.7h-0.9v-5.8h0.9V169.7z"/>
<rect x="626.8" y="280" class="st4" width="0.9" height="2.8"/>
<rect x="678.5" y="132.6" class="st4" width="0.9" height="2.8"/>
<path class="st0" d="M679.4,274.2h-0.9v-5.8h0.9V274.2z M679.4,262.7h-0.9v-5.8h0.9V262.7z M679.4,251.1h-0.9v-5.8h0.9V251.1z
	 M679.4,239.5h-0.9v-5.8h0.9V239.5z M679.4,228h-0.9v-5.8h0.9V228z M679.4,216.4h-0.9v-5.8h0.9V216.4z M679.4,204.9h-0.9v-5.8h0.9
	V204.9z M679.4,193.3h-0.9v-5.8h0.9V193.3z M679.4,181.7h-0.9v-5.8h0.9V181.7z M679.4,170.2h-0.9v-5.8h0.9V170.2z M679.4,158.6h-0.9
	v-5.8h0.9V158.6z M679.4,147h-0.9v-5.8h0.9V147z"/>
<rect x="678.5" y="280" class="st4" width="0.9" height="2.8"/>
<rect x="523.2" y="172.8" class="st4" width="0.9" height="2.8"/>
<path class="st0" d="M524.1,274.5h-0.9V269h0.9V274.5z M524.1,263.5h-0.9V258h0.9V263.5z M524.1,252.5h-0.9V247h0.9V252.5z
	 M524.1,241.6h-0.9v-5.5h0.9V241.6z M524.1,230.6h-0.9v-5.5h0.9V230.6z M524.1,219.6h-0.9v-5.5h0.9V219.6z M524.1,208.6h-0.9v-5.5
	h0.9V208.6z M524.1,197.6h-0.9v-5.5h0.9V197.6z M524.1,186.6h-0.9v-5.5h0.9V186.6z"/>
<rect x="523.2" y="280" class="st4" width="0.9" height="2.8"/>
<path class="st1" d="M731.8,284.2H419.1c-0.5,0-1-0.4-1-1V133.3c0-0.5,0.4-1,1-1c0.5,0,1,0.4,1,1v148.9h311.8c0.5,0,1,0.4,1,1
	C732.8,283.7,732.4,284.2,731.8,284.2z"/>
<polygon class="st1" points="575.5,212.1 523.5,173.1 472.3,211.5 471.1,210 523.5,170.7 575.3,209.4 626.7,153.2 626.9,153.1 
	678.8,132.2 679.5,134 627.9,154.8 "/>
<circle class="st3" cx="471.7" cy="210.8" r="5.9"/>
<circle class="st3" cx="523.5" cy="172.6" r="5.9"/>
<circle class="st3" cx="575.4" cy="210.8" r="5.9"/>
<circle class="st3" cx="627.3" cy="154" r="5.9"/>
<circle class="st3" cx="679.2" cy="132.4" r="5.9"/>
<rect x="347.3" y="28.7" class="st4" width="2" height="353.4"/>
<path class="st5" d="M820.8,378.4c2.6-3.1,2.2-7.7-0.9-10.3c-0.3-0.3-0.7-0.5-1.1-0.7l4.9-25.6l-12.5,5.2l-2.7,23.6
	c-1.8,3.7-0.3,8.1,3.4,9.9C814.9,381.9,818.6,381.1,820.8,378.4z"/>
<polygon class="st5" points="883.2,535.8 872.6,535.8 867.6,494.9 883.2,494.9 "/>
<path class="st1" d="M885.9,546.1l-34.2,0v-0.4c0-7.3,6-13.3,13.3-13.3h0l20.9,0L885.9,546.1z"/>
<polygon class="st5" points="825.3,535.8 814.7,535.8 809.6,494.9 825.3,494.9 "/>
<path class="st1" d="M825.4,546.1l-34.2,0v-0.4c0-7.3,6-13.3,13.3-13.3h0l20.9,0L825.4,546.1z"/>
<polygon class="st1" points="824.4,363.1 814,387 805.5,524.4 827.1,523.5 833,458 851.2,399.7 861.7,464.7 866,521.8 883.9,522.6 
	891,363.1 "/>
<path class="st3" d="M876.3,245.1l-30.1,0.8l-17.7,9.1l-1,66.9l-11,46.2c0,0,68.8,4.7,78.3-2.2l-11.2-52.8l15.1-57L876.3,245.1z"/>
<path class="st3" d="M831.7,256l-3.2-1c0,0-10.2,6.5-9.2,22.4c0,0-0.4,8.2,0,13.6c0.4,6.2-12.1,68.3-12.1,68.3h18.2l7.8-56.2
	L831.7,256z"/>
<path class="st5" d="M898.2,379.3c-2.6-3.1-2.2-7.7,0.9-10.3c0.3-0.3,0.7-0.5,1.1-0.7l-4.9-25.6l12.5,5.2l2.7,23.6
	c1.8,3.7,0.3,8.1-3.4,9.9C904.1,382.7,900.4,381.9,898.2,379.3z"/>
<path class="st3" d="M894.2,256.8l3.2-1c0,0,10.2,6.5,9.2,22.4c0,0,0.4,8.2,0,13.6c-0.4,6.2,5.2,68.3,5.2,68.3h-18.2l-7.8-56.2
	L894.2,256.8z"/>
<path class="st5" d="M883.6,217.1c0,11.5-9.3,20.8-20.8,20.8c-11.5,0-20.8-9.3-20.8-20.8c0-11.5,9.3-20.8,20.8-20.8l0,0
	c11.5,0,20.8,9.3,20.8,20.7C883.6,217,883.6,217,883.6,217.1z"/>
<path class="st6" d="M842,189c2.4-5.3,7.2-4.2,11.3-2.4c5.2-1.2,10.2-4.6,15.9-2.6c5.6,8.1,24.2,5.7,20.2,18.9
	c0,3.2,5.9,1.3,4.9,6.5c3.1,9.9-11.4,28.8-19.7,24.8c2.1-3.8,6.8-12.3-0.4-13.2c-15.3,14.3-1.6-27.2-20.9-15.1
	C847,211.7,838.3,194.9,842,189z"/>
</svg>
