<?xml version="1.0" encoding="utf-8"?>
<!-- Generator: Adobe Illustrator 26.0.3, SVG Export Plug-In . SVG Version: 6.00 Build 0)  -->
<svg version="1.1" id="Layer_1" xmlns="http://www.w3.org/2000/svg" xmlns:xlink="http://www.w3.org/1999/xlink" x="0px" y="0px"
	 viewBox="0 0 1086.1 782.7" style="enable-background:new 0 0 1086.1 782.7;" xml:space="preserve">
<style type="text/css">
	.st0{opacity:0.5;fill:#26CEC1;enable-background:new    ;}
	.st1{fill:none;stroke:#535461;stroke-width:2;stroke-miterlimit:10;}
	.st2{fill:#1E2C4F;}
	.st3{fill:#6C63FF;}
	.st4{fill:#1E2C4F;enable-background:new    ;}
	.st5{opacity:0.25;enable-background:new    ;}
	.st6{fill:#2A4084;}
	.st7{fill:url(#SVGID_1_);}
	.st8{fill:url(#SVGID_00000067956618117619485250000010977541921015731337_);}
	.st9{fill:#E8F5FF;}
	.st10{fill:#FFC1C7;}
	.st11{opacity:0.1;enable-background:new    ;}
	.st12{fill:#DCE6F2;}
	.st13{fill:#99607E;}
	.st14{fill:#26CEC1;}
	.st15{opacity:0.1;}
	.st16{fill:#FFCCD0;}
	.st17{fill:none;}
	.st18{fill:#FFE0D0;}
	.st19{fill:#FF748E;}
</style>
<path class="st0" d="M631.1,138c-69.6-2.4-136-24.9-199.3-49.5s-126-51.8-194-64.9c-43.7-8.4-93.7-9.6-128.9,13.9
	C74.9,60.1,64,99,58.1,135.1c-4.4,27.2-7,55.8,5.1,81.2c8.4,17.7,23.4,32.5,33.7,49.4c36,58.9,10.6,131.5-28.5,189
	c-18.3,27-39.5,52.7-53.6,81.4c-14.1,28.7-20.7,61.6-8.3,90.9c12.3,29,41.4,50.8,73.1,66.2c64.2,31.1,139.9,40,213.7,45.1
	c163.3,11.2,327.6,6.3,491.3,1.5c60.6-1.8,121.5-3.6,181.1-13c33.1-5.2,67.3-13.5,91.3-33.4c30.5-25.3,38.1-68.2,17.6-99.9
	c-34.3-53.2-129.1-66.5-153.1-123.6c-13.2-31.5,0.4-66.5,19.5-95.7c41.1-62.6,110.1-117.5,113.7-189c2.5-49.1-30.7-98.3-81.9-121.6
	c-53.7-24.4-128.2-21.3-167.8,19C764.2,124.2,692.5,140.2,631.1,138z"/>
<path class="st1" d="M242.2,725c0,0-55-41.6-65.4-94.5c-4.2-22.2-15.5-42.5-32.2-57.7c-8-7.2-16.6-13.6-25.8-19.2"/>
<path class="st2" d="M112.1,520.3c4.8,6.5,7,34.2,7,34.2s-25.8-10.2-30.6-16.7c-4.8-6.5-3.5-15.7,3.1-20.5
	C98.1,512.5,107.3,513.8,112.1,520.3z"/>
<path class="st2" d="M158.4,542c0.5,8.1-12.7,32.5-12.7,32.5s-16.1-22.5-16.6-30.6c-0.4-8.1,5.8-15,13.9-15.4
	C150.9,528.1,157.8,534.1,158.4,542L158.4,542z"/>
<path class="st2" d="M203.2,604.3c-3.6,7.2-27.3,21.6-27.3,21.6s-2.5-27.6,1.1-34.8c3.8-7.2,12.7-9.9,19.8-6.2
	C203.8,588.7,206.6,597.2,203.2,604.3z"/>
<path class="st2" d="M226.5,659.1c-2.4,7.8-23.3,25.9-23.3,25.9s-7.2-26.8-4.8-34.5c2.4-7.8,10.6-12.1,18.3-9.7
	C224.5,643.1,228.8,651.3,226.5,659.1L226.5,659.1L226.5,659.1z"/>
<path class="st2" d="M121.9,594.1c8,1.1,33.3-10.3,33.3-10.3s-21.3-17.7-29.4-18.8c-8-1.1-15.4,4.6-16.5,12.6
	C108.2,585.6,113.8,593,121.9,594.1L121.9,594.1z"/>
<path class="st2" d="M149.9,657.8c8-1.4,28.7-19.8,28.7-19.8s-25.7-10.5-33.7-9.1c-8,1.3-13.4,8.9-12.1,16.9s8.9,13.4,16.9,12.1
	C149.8,657.8,149.8,657.8,149.9,657.8L149.9,657.8z"/>
<path class="st2" d="M185.7,716c8.1,0,31.6-14.7,31.6-14.7s-23.5-14.7-31.6-14.7c-8.1,0-14.7,6.6-14.7,14.7
	C171,709.4,177.6,716,185.7,716L185.7,716z"/>
<path class="st1" d="M776.5,365.4c0,0,33.9-60,85-77.4c21.5-7.1,40-21,52.9-39.6c6-8.9,11.3-18.3,15.6-28.1"/>
<path class="st3" d="M962.1,209.3c-5.8,5.6-32.9,11.5-32.9,11.5s6.7-26.9,12.5-32.6c5.9-5.5,15.2-5.2,20.7,0.7
	C967.9,194.7,967.7,203.7,962.1,209.3z"/>
<path class="st3" d="M946.8,258c-8,1.6-33.9-8.2-33.9-8.2s20.2-19,28.2-20.5c7.9-1.8,15.8,3.2,17.5,11.2s-3.2,15.8-11.2,17.5
	C947.2,257.9,947,257.9,946.8,258L946.8,258z"/>
<path class="st3" d="M891.1,310.6c-7.7-2.6-25.1-24.2-25.1-24.2s27-6.2,34.7-3.5c7.7,2.6,11.9,10.9,9.3,18.6s-10.9,11.9-18.6,9.3
	C891.3,310.7,891.2,310.7,891.1,310.6z"/>
<path class="st3" d="M839.8,341c-8-1.3-28.8-19.7-28.8-19.7s25.6-10.7,33.6-9.3c8,1.3,13.4,8.9,12.1,16.9S847.9,342.3,839.8,341
	L839.8,341z"/>
<path class="st3" d="M890.4,228.7c0,8.1,14.7,31.6,14.7,31.6s14.7-23.5,14.7-31.6c0.2-8.1-6.2-14.8-14.3-15.1
	c-8.1-0.2-14.8,6.2-15.1,14.3C890.4,228.2,890.4,228.5,890.4,228.7L890.4,228.7z"/>
<path class="st3" d="M830.9,265c2.4,7.7,23.5,25.8,23.5,25.8s7-26.8,4.6-34.6c-2.7-7.6-11.1-11.7-18.7-9
	C833,249.8,828.9,257.5,830.9,265L830.9,265z"/>
<path class="st3" d="M778.1,308.1c1.1,8,18.8,29.4,18.8,29.4s11.4-25.2,10.3-33.3c-0.9-8.1-8.1-13.9-16.2-13
	c-8.1,0.9-13.9,8.1-13,16.2C778,307.7,778,307.9,778.1,308.1z"/>
<path class="st4" d="M962.1,209.3c-5.8,5.6-32.9,11.5-32.9,11.5s6.7-26.9,12.5-32.6c5.9-5.5,15.2-5.2,20.7,0.7
	C967.9,194.7,967.7,203.7,962.1,209.3z"/>
<path class="st4" d="M946.8,258c-8,1.6-33.9-8.2-33.9-8.2s20.2-19,28.2-20.5c7.9-1.8,15.8,3.2,17.5,11.2s-3.2,15.8-11.2,17.5
	C947.2,257.9,947,257.9,946.8,258L946.8,258z"/>
<path class="st4" d="M891.1,310.6c-7.7-2.6-25.1-24.2-25.1-24.2s27-6.2,34.7-3.5c7.7,2.6,11.9,10.9,9.3,18.6s-10.9,11.9-18.6,9.3
	C891.3,310.7,891.2,310.7,891.1,310.6z"/>
<path class="st5" d="M839.8,341c-8-1.3-28.8-19.7-28.8-19.7s25.6-10.7,33.6-9.3c8,1.3,13.4,8.9,12.1,16.9S847.9,342.3,839.8,341
	L839.8,341z"/>
<path class="st4" d="M890.4,228.7c0,8.1,14.7,31.6,14.7,31.6s14.7-23.5,14.7-31.6c0.2-8.1-6.2-14.8-14.3-15.1
	c-8.1-0.2-14.8,6.2-15.1,14.3C890.4,228.2,890.4,228.5,890.4,228.7L890.4,228.7z"/>
<path class="st5" d="M830.9,265c2.4,7.7,23.5,25.8,23.5,25.8s7-26.8,4.6-34.6c-2.7-7.6-11.1-11.7-18.7-9
	C833,249.8,828.9,257.5,830.9,265L830.9,265z"/>
<path class="st5" d="M778.1,308.1c1.1,8,18.8,29.4,18.8,29.4s11.4-25.2,10.3-33.3c-0.9-8.1-8.1-13.9-16.2-13
	c-8.1,0.9-13.9,8.1-13,16.2C778,307.7,778,307.9,778.1,308.1z"/>
<path class="st1" d="M778.5,364.2c0,0,6.7-68.6,46.3-105.1c16.7-15.2,28.1-35.4,32.3-57.6c1.9-10.6,2.9-21.3,2.9-32"/>
<path class="st6" d="M884.9,146.3c-3,7.5-25.4,23.8-25.4,23.8s-4.8-27.3-1.8-34.8c3-7.5,11.6-11.2,19.1-8.1
	C884.3,130.2,887.9,138.8,884.9,146.3L884.9,146.3z"/>
<path class="st6" d="M890.6,197c-6.6,4.7-34.3,6.2-34.3,6.2s10.8-25.5,17.4-30.2c6.5-4.9,15.7-3.5,20.5,3c4.9,6.5,3.5,15.7-3,20.5
	C891.1,196.7,890.9,196.8,890.6,197L890.6,197z"/>
<path class="st6" d="M861,267.8c-8.1,0.7-32.7-12-32.7-12s22.2-16.6,30.3-17.3c8.1-0.7,15.2,5.3,15.9,13.4
	C875,260,869,267.1,861,267.8L861,267.8L861,267.8z"/>
<path class="st3" d="M826.5,316.3c-7.8,2-34.3-6.3-34.3-6.3s19.1-20.1,26.9-22.1c7.8-2,15.9,2.7,17.9,10.5
	C839,306.2,834.3,314.2,826.5,316.3L826.5,316.3L826.5,316.3z"/>
<path class="st6" d="M827.2,193.1c3.3,7.4,26.2,23,26.2,23s3.9-27.4,0.6-34.9c-3.5-7.3-12.2-10.5-19.5-7
	C827.4,177.6,824.1,185.9,827.2,193.1L827.2,193.1z"/>
<path class="st3" d="M787.5,250.3c5.3,6.1,31.9,14.1,31.9,14.1s-4.5-27.4-9.8-33.4c-5.3-6.2-14.5-6.9-20.7-1.6
	c-6.2,5.3-6.9,14.5-1.6,20.7C787.3,250.1,787.4,250.2,787.5,250.3z"/>
<path class="st3" d="M756.6,311.3c4.2,6.9,29,19.2,29,19.2s0.2-27.7-4-34.6c-4.5-6.8-13.6-8.7-20.3-4.2
	C754.8,295.9,752.8,304.5,756.6,311.3L756.6,311.3z"/>
<linearGradient id="SVGID_1_" gradientUnits="userSpaceOnUse" x1="786.97" y1="627.8198" x2="786.97" y2="646.1998" gradientTransform="matrix(1 0 0 -1 -56.94 723.2299)">
	<stop  offset="0" style="stop-color:#808080;stop-opacity:0.25"/>
	<stop  offset="0.54" style="stop-color:#808080;stop-opacity:0.12"/>
	<stop  offset="1" style="stop-color:#808080;stop-opacity:0.1"/>
</linearGradient>
<path class="st7" d="M727.5,95.4c1.7-6.1,3.7-12.2,5.1-18.4C730.9,83.2,728.9,89.3,727.5,95.4z"/>
<linearGradient id="SVGID_00000085959917137257691600000005991846882386598328_" gradientUnits="userSpaceOnUse" x1="619.6995" y1="-59.4702" x2="619.6995" y2="723.2151" gradientTransform="matrix(1 0 0 -1 -56.94 723.2299)">
	<stop  offset="0" style="stop-color:#808080;stop-opacity:0.25"/>
	<stop  offset="0.54" style="stop-color:#808080;stop-opacity:0.12"/>
	<stop  offset="1" style="stop-color:#808080;stop-opacity:0.1"/>
</linearGradient>
<path style="fill:url(#SVGID_00000085959917137257691600000005991846882386598328_);" d="M720.1,154.1c-0.1-0.2-0.2-0.5-0.3-0.7l0,0
	c0-0.1-0.1-0.2-0.1-0.3c-0.2,0.1-0.4,0.2-0.7,0.3c-0.4,0.2-0.9,0.3-1.3,0.5s-0.7,0.2-1,0.3c-0.3,0.1-0.6,0.2-0.9,0.2l0.1,0.2
	c0.4-0.1,0.7-0.1,1.1-0.2l0.1,1.2c0.4,0,0.8-0.1,1.2-0.1c0.2,0,0.4,0,0.5,0c0.8,0,1.5,0,2,0C720.5,155,720.2,154.5,720.1,154.1z
	 M923.1,477.2c-4.7-6.3-14.1-74.3-14.1-74.3s-18.5-48.3-13.4-67.6s-13.7-68.6-13.7-68.6s-12.4-5.4-13.1-13.4c0,0-50.6-16-53-28
	c-1.9-9.8-33.3-16.9-44.6-19.1c-3.4-13.9-6.9-26.8-9.5-33.9c-0.7-2.2-1.3-4.1-1.9-5.6c-4.3-11-17.6-12-27.3-11.1
	c-0.4-1.9-1.2-3.7-2.3-5.2c-0.2-0.5-0.5-1-0.9-1.4c-0.2-0.2-0.4-0.3-0.7-0.5c-0.2-0.3-0.4-0.6-0.7-0.9c-0.3-0.2-0.6-0.5-0.9-0.6
	c-0.2-0.1-0.5-0.2-0.7-0.3c-0.6-0.2-1.2-0.4-1.8-0.5c-0.7-0.1-1.4-0.2-2.2-0.3c1.8-0.8,3.3-1.9,4.6-3.4c0.9-1,1.5-2.2,1.9-3.5
	c0.3-1.1,0.5-2.2,0.4-3.3c-0.3,0.5-0.6,0.9-0.9,1.3c0.4-4.4-1.9-8.9-3.3-13.3c-1.6-5.7-1.9-11.8-0.9-17.6l0,0
	c1.3-8.9,4.7-17.8,6.9-26.8c0,0,0-0.1,0-0.1c1.2-4.5,1.9-9.1,2.2-13.7c0.4-9.3-2-18.6-5.8-27.1c-3.4-7.5-8.4-14.9-16.1-18
	c-5.7-2.3-12.1-1.9-18.3-2.3c-13.8-0.9-27-5.7-40.1-10.1s-26.7-8.4-40.5-7.7s-28.1,7.4-34.4,19.7c-2,3.8-3.2,8.1-5.5,11.7
	c-4.5,6.8-12.5,10.2-19.2,14.8s-12.6,11.3-15,19.2c-1.3,4.3-1.5,8.8-0.5,13.2l0,0c0.2,1,0.5,2,0.8,2.9c0.9,2.6,2.4,5.1,4.3,7.1
	c1.4,1.5,3.1,2.8,4.9,3.8l0,0c2.3,1.3,4.7,2.2,7.3,2.8c-0.1,0.3-0.2,0.6-0.3,0.9c-0.2,0.5-0.3,1-0.5,1.6c-0.3,1.2-0.6,2.5-0.9,3.7
	c0,0.1,0,0.2,0,0.3c-1.2,5.7-1.8,11.5-1.8,17.3c0,2.8,0.1,5.5,0.4,8.2l0,0c4,40.6,37.5,72.6,78.9,74.7c1.4,0.1,2.8,0.1,4.3,0.1
	c0.7,0,1.3,0,2,0c0.7,0.9,1.3,1.7,1.9,2.6s1.2,1.7,1.7,2.6l-1.5-1.5l0,0l-1.4-1.3c-0.4,0.5-0.8,1-1.3,1.5c-0.9-0.3-1.9-0.6-2.9-0.8
	l0,0c-4.2-0.9-10.5-1.3-18.8,1.2c-7.7,2.3-17,7-27.9,16l-53.3,32L505,271.9l-10.4,25.4c0,0-7.8,30.2-16.5,64.8
	c-0.3,0.1-0.7,0.2-1,0.3c-0.7-0.1-1.4-0.1-2.1-0.1c-10.5,0-19.1,8.2-19.5,18.7c-17.3,21-18.3,42-14.2,51.6l0,0
	c0.4,0.9,0.8,1.8,1.4,2.6c2.7,3.8,7.6,13.7,12.7,24.3c-0.1,0.9-0.2,1.6-0.2,2.2c0,0.2,0,0.4,0,0.5c0,0,3,45.3-7,58.3
	c-2.2,2.8-1.9,6.5,0,10.7l0,0c6.7,14.8,33.2,34.6,33.2,34.6s31.8-0.2,49.5-2.1c0,1.8-0.1,3.5-0.1,5.3c-0.4,17.5-0.4,32.1-0.4,32.1
	l-0.7,18.3c0,0-6,38.6-9,49.3c-1.9,6.7,0.3,68.5,2.2,114h313c3.7-26.9-1.5-108.6-1.5-108.6s-4.9-21.1-5.1-39.5c0,0,0-0.1,0-0.1
	c0-1.6,0-3.2,0.1-4.7l2.3-0.1l4.1-0.1h0.4c0,0,0.1-0.4,0.3-1l0,0c0.5-1.5,1.3-3,2.2-4.4c1.7-2.6,4.5-5.1,8.5-5.3
	c2.3-0.1,5.8-1.9,9.7-4.6c0,0,0.1,0,0.1,0c10.6-7.2,24.7-20.5,28.1-22.6c4.7-3,27.2-23,27.2-23s3.3-4.2,6.9-9.3l0.1-0.2
	c4.4-6.4,9.2-14,8-16.5c-2-4.3,1.3-14.7,1.3-14.7C938.8,508.8,927.8,483.5,923.1,477.2z M729.7,169.6c0.1,0.3,0.2,0.6,0.2,0.9
	c-0.2-0.3-0.5-0.7-0.8-1l-0.2-0.3l-0.2-0.2l0.4-0.5c0,0,0,0,0,0.1l0,0C729.4,168.9,729.6,169.2,729.7,169.6z M726.3,160.8
	c-1.1,0.2-2,0.4-2.5,0.6c-0.7-1.3-1.4-2.5-2-3.8C723.4,158.5,724.9,159.5,726.3,160.8z M724.5,162.3
	C724.4,162.3,724.4,162.3,724.5,162.3L724.5,162.3L724.5,162.3c0.5,0.3,0.9,0.5,1.3,0.8l0,0c0.3,0.2,0.6,0.5,0.9,0.7
	c-0.2,0.4-0.4,0.7-0.6,1c-0.3-0.6-0.7-1.1-1-1.6C724.8,163,724.6,162.7,724.5,162.3z M718.5,150c1.9-0.2,3.9-0.2,5.8,0l0,0
	c0.3,0,0.5,0.1,0.8,0.1l0,0c0.5,0.1,1.1,0.2,1.6,0.4c1.2,1.7,1.9,3.6,2.1,5.6l-0.5,0.1l-0.5,0.1c-1,0.2-2,0.3-2.8,0.5l-1,0.2
	c-1.3,0.3-2.1,0.5-2.1,0.5c-0.1-0.3-0.3-0.5-0.4-0.8c-0.2-0.4-0.5-0.9-0.7-1.3s-0.5-0.9-0.7-1.4c-0.1-0.2-0.2-0.5-0.3-0.7l0,0
	c0-0.1-0.1-0.2-0.1-0.3c-0.1-0.1-0.1-0.2-0.2-0.3c-0.6-1.2-1.2-2.5-1.7-3.7c-0.1-0.1-0.1-0.2-0.2-0.4l0.8-0.1v0.3L718.5,150z
	 M479.9,770.3c-0.1-14.9-1.2-31-4.2-46.1c-1.3-6.4-2.6-12.9-3.9-19.2c-0.3-1.6-0.7-3.1-1-4.7l-3.1,0.4h-0.3
	c-8.4-39.6-17.2-74.5-17.2-74.5s-17.4-66.6-15.4-71.9c0.3-0.7-0.1-2.5-0.8-5.3c-4.2-15.1-21.8-56.9-28-71.1l0,0c0-0.1,0-0.1-0.1-0.2
	l0,0c-1-2.4-1.7-4-1.9-4.5l1.5-21.3l0.1-1.3l0.2-2.7l-0.1-0.1l0.1-1.3c0,0-15.2-12.5-41-21.5c-1-0.4-2.1-0.7-3.1-1
	c1.3-8.6,3-18.3,5.2-27.8c0.2-1,0.4-1.9,0.7-2.8l0,0c0.2-0.9,0.5-1.8,0.7-2.7c0.4-1.5,0.8-2.9,1.2-4.4c1.4-0.4,2.8-0.9,4.1-1.5
	l0.5-0.2c34.4-13.4,53.6-50.1,45-86l0,0c-2.4-9.8-6.8-19.1-12.9-27.1l0,0c-0.5-0.6-1-1.2-1.4-1.9s-1.1-1.3-1.6-1.9
	c2.9-6.6,6.3-12.8,6.6-19.2c0-0.8,0-1.6,0-2.4l0,0v-0.1c-0.4-4.1-2.2-8.3-6.4-12.6c-6.2-6.4-15-9.7-23.8-11.2s-17.8-1.6-26.6-2.6
	c-14.7-1.8-29-6.3-43.7-7.7c-18.1-1.7-36.3,1.4-52.8,9c-10.9,5-22,13.7-22.7,25.7c-0.5,9.9,6.4,19.4,4.6,29.2
	c-1.7,9.6-11.5,17.2-10.7,26.9c0.3,3.8,2.3,7.2,4.7,10.2l0,0c0.8,1,1.7,2,2.6,3c3.6,3.8,7.5,7.4,9.5,12.1c0.1,0.2,0.2,0.4,0.2,0.6
	c1.7,4.7,0.9,10.6-3.2,13.3c0,0,0,0,0,0.1l0,0c0.1,0.1,0.1,0.1,0.2,0.2c0,0,0,0,0,0c1.5,1.8,3.5,3,5.7,3.6l0.9,0.3
	c-0.7,0.8-1.3,1.5-2,2.4l-0.4,0.6c-1.1,1.5-2.1,3-3,4.6c-0.5,0.9-1,1.8-1.4,2.7c-1.4,2.7-2.4,5.7-3,8.7c-1.1,6.6,0.4,13.5-1.2,20
	c-2,8-8.3,14.1-11.9,21.6c-6.8,14-2.9,30.4-1.6,45.9c1.9,21-1.1,42.1-4.1,63c-1.6,11.1-3.2,22.2-4.8,33.3c-4,27.9-8,55.8-12,83.7
	c-1.5,10.2-3.2,21-10,28.9h0.1c0,0,0,0.1-0.1,0.1c2,0.9,4.2,1.5,6.4,1.7l0,0c8.9,0.9,18.3-3.4,26.3-8.1c6.3-3.7,12.3-7.9,17.9-12.6
	c-0.8,3-1.7,6.3-2.6,9.8c0,0,0,0.1,0,0.1l0,0c-11.3,43-29.5,121.8-29.5,121.8s-1.6,3.4-3.8,8.5h282c-3.3-4-6.4-7.8-8.8-10.9
	L479.9,770.3z M271.1,372.7c0.1-0.1,0.1-0.2,0.2-0.3c0,0.3,0,0.6,0,0.9s0,0.6,0,0.9s0,0.2,0,0.4s0,0,0,0c0,0.4-0.1,0.8-0.2,1.2l0,0
	c0,0,0,0,0,0.1l1,0.4l1.2,0.5l0,0c6.9,2.7,13.8,5.2,20.8,7.4c0.7,0.2,1.5,0.5,2.2,0.7l0.1,1.2c0.2,1.3,0.4,2.6,0.5,3.9
	c0,0,0,0.1,0,0.1c0.5,3.6,0.9,7.1,1.3,10.6c0,0-18.4-7-18.1,3.6c0,0.2,0,0.4,0,0.6c0,0.3,0,0.5,0,0.8c0.2,8.3,2.8,13.2,3.3,15.7
	c0,0.1-0.1,0.2-0.2,0.3c-0.4,1-0.6,2-0.4,3.1c0,1.8,0.1,3.6,0.4,5.3c-0.5,0.3-1.1,0.7-1.6,1l0,0c-0.4,0.2-0.8,0.5-1.2,0.8
	c-2.5-8.5-5.7-16.8-9.6-24.7c-2.8-5.7-5.8-11.6-5.8-17.8c0-0.4,0-0.8,0-1.2c0.1-1.8,0.5-3.6,1-5.3c0.2-0.6,0.5-1.3,0.8-1.9
	c0.7-1.5,1.4-3,2.2-4.4l0,0c0.5-0.9,1.1-1.9,1.6-2.8C270.8,373.3,270.9,373.1,271.1,372.7L271.1,372.7z M720.1,154.1
	c-0.1-0.2-0.2-0.5-0.3-0.7l0,0c0-0.1-0.1-0.2-0.1-0.3c-0.2,0.1-0.4,0.2-0.7,0.3c-0.4,0.2-0.9,0.3-1.3,0.5s-0.7,0.2-1,0.3l-0.9,0.2
	l0.1,0.2c0.4-0.1,0.7-0.1,1.1-0.2l0.1,1.2c0.4,0,0.8-0.1,1.2-0.1h0.5c0.8,0,1.5,0,2,0C720.5,155,720.2,154.5,720.1,154.1z"/>
<path class="st9" d="M501.6,300.9l-6,2.6c0,0-39.1,151.9-39.1,164.2s82.9,80.6,82.9,80.6l12.9-87.3
	C552.3,461.1,533.7,260.8,501.6,300.9z"/>
<path class="st10" d="M683.5,252.6l-34.6-18.1c-1.9-8.3-5.4-16.1-10.2-23.1c-5.1-7.3-11.8-14.5-20.2-18.3
	c-21.2-9.5,89.8-59.5,89.8-59.5c1.7,6,3.8,11.9,6.2,17.7c5.7,14.1,15.2,32.4,27.4,37.6C762.7,197.8,683.5,252.6,683.5,252.6z"/>
<path class="st11" d="M714.4,151.3c-9.7,34.2-40.2,58.4-75.8,60c-5.1-7.3-11.8-14.5-20.2-18.3c-21.2-9.5,89.8-59.5,89.8-59.5
	C710,139.6,712.1,145.6,714.4,151.3z"/>
<path class="st10" d="M717.5,126.1c0,45.7-37,82.7-82.7,82.8c-45.7,0-82.7-37-82.8-82.7s37-82.7,82.7-82.8c0,0,0,0,0,0
	c45.5-0.2,82.5,36.5,82.7,82C717.5,125.6,717.5,125.9,717.5,126.1z"/>
<polygon class="st6" points="729.5,242 706.9,294.6 687,329.6 623.3,329.6 604.7,281.8 612.3,232.3 660.9,232.3 692.3,230.5 
	702.9,227 709.8,230.8 "/>
<path class="st11" d="M721.7,171.8c0,0,14.1,3,1.5,13.3s-56.1,43.2-56.1,43.2s15.3,13.6,12.1,29.5l50.6-28.2l9-45.1
	C738.8,184.5,739.8,171,721.7,171.8z"/>
<path class="st11" d="M677.1,228.3l-32.2,5.3c0,0,6.6,24.5,3.3,31.5c-0.1,0.2-0.2,0.4-0.2,0.7l-13.1,35.5l9.8,27.9l34.1-46.5
	l-11.6-17.6c0,0,12.3-16.3,19.6-21.9S677.1,228.3,677.1,228.3z"/>
<path class="st12" d="M677.1,227l-32.2,5.3c0,0,6.6,24.5,3.3,31.5c-0.1,0.2-0.2,0.4-0.2,0.7l-13.1,35.5l9.8,27.9l34.1-46.5
	l-11.6-17.6c0,0,12.3-16.3,19.6-21.9S677.1,227,677.1,227z"/>
<path class="st6" d="M723.1,169.2c0,0,14.1,3,1.5,13.3s-57.4,45.8-57.4,45.8s16.6,11,13.4,26.9l50.6-28.2l9-45.1
	C740.1,181.9,741.1,168.3,723.1,169.2z"/>
<path class="st11" d="M640.9,214.5c0,0,3.1,5.7,16.6,16.1c0,0-22.6,12-13.9,28.9l-34.5-9l-5.3-16.6L640.9,214.5z"/>
<path class="st6" d="M639.5,213.2c0,0,3.1,5.7,16.6,16.1c0,0-22.6,11.9-13.9,28.9l-34.5-9l-5.3-16.6L639.5,213.2z"/>
<path class="st11" d="M729.5,242l-22.6,52.6l-19.9,34.9h-63.7l-18.6-47.8l7.5-49.5h13.5c-0.2,11.6,4,25.1,3.7,30.2
	c-0.5,8.3,12.4,53.1,12.4,53.1s26.9-43.5,37.5-47.3c6.7-2.4,20.8-22.6,30.4-37.4L729.5,242z"/>
<path class="st9" d="M818.3,519l-2.3,2.9c0,0,16.6,83.3,12,102.2c-0.8,3.4-1.2,6.9-1.3,10.4v0.2c-0.8,19.2,5,44.2,5,44.2
	s4.6,73.6,2,103.9H523.1c-1.8-44.8-3.8-102.8-2-109.2c3-10.6,9-49.1,9-49.1l0.7-18.2c0,0,0-17.6,0.5-37.3c0.2-8.8,0.6-18.1,1.1-26.3
	c0.6-10.3,1.5-19,2.7-23.3c0.7-3.2,1.2-6.6,1.3-9.9c0-0.3,0-0.6,0.1-1c0-1,0.1-2.1,0.1-3.2c0-0.3,0-0.6,0-1c0.2-6.4,0.1-14.1-0.1-22
	c0-0.4,0-0.9,0-1.3c-0.2-5.9-0.4-12-0.7-17.8c-0.9-18-2-33.2-2-33.2l-38.2-126.4l10.3-25.3l28.5-17.5l52.8-31.9
	c25.7-21.1,42.7-18.6,49.1-16.3c0.6,0.2,1.2,0.5,1.8,0.8c0.2,0.1,0.4,0.2,0.5,0.3c0.2,0.1,0.4,0.2,0.6,0.3l0,0
	c-1.8,0.9-3.3,2.1-4.5,3.7c-1.3,1.8-2.3,3.8-2.8,6c-0.3,1.3-0.6,2.7-0.7,4.1c-0.1,1.5-0.2,3-0.2,4.5c0.1,3.3,0.4,6.6,0.8,9.9
	c0,0.1,0,0.1,0,0.2c0.3,2.3,0.7,4.6,1.1,6.8c0,0,0,0.1,0,0.1c0.5,2.5,0.9,4.8,1.2,6.8c0.1,0.4,0.1,0.7,0.2,1c0.2,1.3,0.3,2.7,0.3,4
	c0.1,3.2,0.5,6.5,1.3,9.6c0.3,1.3,0.6,2.7,0.9,4.2c0.5,2,0.9,4.2,1.5,6.4c0.3,1.2,0.6,2.5,0.9,3.7c0.1,0.5,0.2,1,0.4,1.5l0.2,0.8
	c2.1,8.5,4.4,16.9,5.9,22c0.8,3,1.4,4.9,1.4,4.9s15.1-24.4,27.1-38.2c0.2-0.2,0.3-0.4,0.5-0.6c1.2-1.4,2.4-2.6,3.5-3.7
	c2.5-2.4,4.7-4.2,6.4-4.8c0.4-0.1,0.7-0.3,1.1-0.5c4.9-2.8,12.9-12.9,20.3-23.5c0.7-1,1.4-2.1,2.2-3.1c1.7-2.4,3.2-4.8,4.8-7.1
	c1.2-1.8,2.3-3.5,3.3-5.1c5-7.8,8.5-13.6,8.5-13.6l6.9-0.3l1.2-0.1h0.8l31.5-1.5c0,0,1.4,0.2,3.6,0.7c0.1,0,0.2,0,0.4,0.1
	c11.2,2.2,42.2,9.2,44.1,19c2.3,11.9,52.4,27.9,52.4,27.9c0.7,8,12.9,13.3,12.9,13.3s18.6,49.1,13.6,68.3c-4.9,19,12.8,66,13.2,67.3
	l0,0l-3.4,4.3L818.3,519z"/>
<path class="st11" d="M721.7,168.3c0,0,30.7-8.7,37.6,9.2s22.6,90.2,22.6,90.2s-40.5,7.6-51.1,0c-6.2-4.5-13.9-6.5-21.6-5.6
	l-22.9,15.6l-6.8-2c0,0,36.6-54.4,44.6-72.9S734.8,176,721.7,168.3z"/>
<path class="st9" d="M720.4,164.3c0,0,30.7-8.7,37.7,9.2s22.6,90.2,22.6,90.2s-40.5,7.6-51.1,0c-6.2-4.5-13.9-6.5-21.6-5.6
	l-22.9,15.6l-6.8-2c0,0,36.6-54.4,44.6-72.9S733.5,172.1,720.4,164.3z"/>
<path class="st11" d="M514.5,452.9c0,0,22.9,5.6,27.2,18.6s-16.9,13.3-16.9,13.3S511.8,461.9,514.5,452.9z"/>
<path class="st11" d="M599.8,548.4c0,0-56.1,114.8-43.1,125.7S599.8,548.4,599.8,548.4z"/>
<path class="st11" d="M677.1,463.8c0,0,44.8,111.5,35.8,128.7s19.2,0,19.2,0L677.1,463.8z"/>
<path class="st10" d="M739.4,574c0,0-151.3,7.3-107.2,54.4s134.7,2,134.7,2L739.4,574z"/>
<path class="st11" d="M717.5,126.1c0,10.9-2.1,21.6-6.3,31.6c-1.4,0.2-2.8,0.3-4.1,0.3c-2-4.4-0.9-9.5-0.9-14.3s-1.7-10.5-6.4-11.8
	c-9.3-2.6-15.7,14.7-24.8,11.6c-7-2.4-5.2-13-9.2-19.1c-3.2-4.9-9.6-6.2-14.5-9.3c-10.6-6.5-10.2-16.9-15.2-26.7
	c-5.1-10.3-16-7.2-25.4-1.2c-7.2,4.6-13.3,10.8-21,14.5c-6.6,3.2-14.1,4.4-21.4,4.5c-4.5,0.2-9.1-0.3-13.4-1.4
	c11.7-44.2,57.1-70.4,101.2-58.7C692.3,55.8,717.5,88.6,717.5,126.1L717.5,126.1z"/>
<path class="st13" d="M610.8,84.6c-7.2,4.6-13.3,10.8-21,14.5c-6.6,3.2-14.1,4.4-21.4,4.5c-9,0.2-18.7-1.4-24.8-7.9
	c-5.7-6-7-15.2-4.6-23.1s8.1-14.4,14.8-19.1s14.5-8,19-14.8c2.4-3.6,3.5-7.8,5.5-11.6c6.3-12.2,20.4-18.8,34-19.6s27.1,3.2,40.1,7.6
	s26.1,9.2,39.8,10.2c6.1,0.4,12.4,0,18.1,2.3c7.6,3.1,12.6,10.5,16,18c3.8,8.5,6.2,17.7,5.8,27c-0.8,19.8-13.9,39.2-8.2,58.1
	c1.5,5.1,4.4,10.2,2.8,15.3c-2.2,7.4-11.7,9.1-19.4,9.4c-2-4.4-0.9-9.5-0.9-14.3s-1.7-10.5-6.4-11.8c-9.3-2.6-15.7,14.7-24.8,11.6
	c-7-2.4-5.2-13-9.2-19.1c-3.2-4.9-9.6-6.2-14.5-9.3c-10.6-6.5-10.2-16.9-15.2-26.7C631.1,75.5,620.2,78.6,610.8,84.6z"/>
<path class="st9" d="M464.1,465.2l-7.6,2.7c0,0,3,45.1-7,58.1s32.8,45.1,32.8,45.1s58.7-0.3,60.4-5s-3-83.6-3-83.6
	s-31.5-12.3-28.9-31.9c0,0-9.6,46.1-23.9,44.1S456.5,480.8,464.1,465.2z"/>
<ellipse class="st11" cx="489.5" cy="490.2" rx="20.1" ry="18.4"/>
<path class="st10" d="M511.5,466.5c0,0-4-122.1-38.8-94.9s-35.2,59.7-28.5,69.3s27.9,57.7,27.9,57.7l0,0c11.6,6.7,26.5,2.8,33.3-8.9
	c1.3-2.2,2.2-4.6,2.7-7.1L511.5,466.5z"/>
<path class="st11" d="M728.7,157.3c-0.2-0.5-0.5-1-0.9-1.4c-1.7-1.6-5.4-2.1-11-1.6l0.2,2.6c7.4-0.6,8.9,0.8,9.1,1.1v0.2l0.2,0.3
	c1.9,2.5,2.6,5.7,2,8.8c-1.6,8.1-11.6,14.6-11.7,14.7l-0.2,0.1l-0.2,0.2c-4.3,6.4-28.8,24.5-35.1,29.2l-0.6-0.6
	c-2.9,2.5-28,24.5-29.4,32.9c-0.9,5.3-6.8,7.3-9,7.9c-2.3-1.7-9.7-7.6-13.5-14.2c-3.6-6.2,10.9-18.3,12.2-23.1l-2-2
	c-0.2,0.8-18.9,18.2-13.7,27.1c4.2,7.1,11.8,13.3,14.4,15.3c-0.8,7.7-6.1,53-14.3,63.8c-10.1,13.4-18.6,80.6-17.7,104.1
	c0.8,20.9-4.6,60.3-22.8,77.2c-6.4,6.2-15.2,9.1-24.1,8h-0.2h-0.2c-0.3,0-26.7,2.7-48.8-16c-18.2-15.3-28.4-40.2-30.6-74.1h-0.4
	l-0.2-9.9c10.5-1.6,17.7-11.5,16.1-22s-11.5-17.7-22-16.1c-10.5,1.6-17.7,11.5-16.1,22c1.5,9.4,9.6,16.3,19.1,16.3h0.2l0.2,9.8
	l-0.9,0.1c2.2,35,13,60.9,32,76.9c14.4,12,32.9,18,51.6,16.9c1.3,0.1,2.7,0.2,4,0.2c8.6,0,16.8-3.3,23-9.3
	c19.2-17.8,25-58.7,24.1-80.3c-1-24.9,7.9-89.8,16.8-101.6c8.8-11.6,14.1-56.8,15-65.5c3.2-0.9,10.3-3.7,11.6-11
	c0.9-5.3,17.7-21.5,28-30.6l-0.3-0.4c5.6-4.1,22.8-16.9,31.4-25.1c2.7-2.6,5.3-5.1,8.1-7.5c3.3-2.9,7.5-7.6,8.7-13.1
	C731.7,164.2,730.9,160.3,728.7,157.3z"/>
<path class="st14" d="M639.3,254.2c-0.4-0.3-10.4-7.4-15.4-16c-5.2-8.9,13.5-26.3,13.7-27.1l2,2c-1.3,4.7-15.8,16.9-12.2,23
	c4.5,7.8,14.1,14.7,14.2,14.8L639.3,254.2z"/>
<path class="st9" d="M679.8,213.5l-1.6-2.1c0.3-0.2,31.7-22.9,36.7-30.3l0.2-0.2l0.2-0.1c0.1-0.1,10.1-6.6,11.7-14.7
	c0.6-3.1-0.1-6.3-2-8.8l-0.2-0.3v-0.2c-0.2-0.3-1.7-1.7-9.1-1.1l-0.2-2.6c5.6-0.5,9.3,0.1,11,1.6c0.4,0.4,0.7,0.9,0.9,1.4
	c2.2,3.1,3,6.9,2.3,10.6c-1.1,5.5-5.3,10.2-8.7,13.1c-2.8,2.4-5.4,5-8,7.5C702.9,196.8,680.9,212.8,679.8,213.5z"/>
<rect x="476.5" y="404.6" transform="matrix(0.9998 -1.832493e-02 1.832493e-02 0.9998 -7.4813 8.8261)" class="st9" width="2.7" height="16.1"/>
<circle class="st14" cx="476.2" cy="387.6" r="19.4"/>
<circle class="st9" cx="476.2" cy="387.6" r="16.1"/>
<path class="st14" d="M563.3,510.8c-1.3,0-2.7-0.1-4-0.2c-18.7,1.1-37.2-4.9-51.6-16.9c-19-16-29.8-41.9-32-76.9l4-0.2
	c2.1,33.9,12.4,58.8,30.6,74.1c22.2,18.7,48.6,16,48.8,16h0.2h0.2c8.8,1.1,17.7-1.8,24.1-8c18.2-16.9,23.6-56.4,22.8-77.2
	c-1-23.5,7.5-90.8,17.6-104.1c8.8-11.7,14.3-64.4,14.4-64.9l0.2-1.5l1.5-0.3c0.1,0,8.7-1.6,9.8-8.1c1.4-8.4,26.5-30.4,29.3-32.9
	l2.6,3c-10.4,9-27.2,25.3-28,30.6c-1.2,7.3-8.4,10.1-11.5,11c-1,8.8-6.3,53.9-15,65.5c-8.9,11.8-17.8,76.7-16.8,101.6
	c0.9,21.6-4.9,62.5-24.1,80.3C580.2,507.6,571.9,510.9,563.3,510.8z"/>
<g class="st15">
	<path d="M726.1,102.5c1.6-6.1,3.6-12.2,5-18.3C729.4,90.3,727.4,96.4,726.1,102.5z"/>
	<path d="M709.3,150.1c-2-4.4-0.9-9.5-0.9-14.3s-1.7-10.5-6.4-11.8c-9.3-2.6-15.7,14.7-24.8,11.6c-7-2.4-5.2-13-9.2-19.1
		c-3.2-4.9-9.6-6.2-14.5-9.3c-10.6-6.5-10.3-16.9-15.2-26.7c-5.2-10.3-16-7.3-25.4-1.2c-7.2,4.6-13.3,10.8-21,14.5
		c-6.6,3.2-14.1,4.4-21.4,4.5c-9,0.2-18.7-1.4-24.8-7.9c-4.7-5-6.5-12.3-5.5-19.2c-0.2,0.5-0.3,0.9-0.5,1.4
		c-2.4,7.9-1,17.1,4.6,23.1c6.2,6.5,15.9,8.1,24.8,7.9c7.4-0.2,14.8-1.3,21.4-4.5c7.7-3.7,13.8-9.9,21-14.5
		c9.4-6.1,20.3-9.1,25.4,1.2c4.9,9.8,4.6,20.2,15.2,26.7c5,3,11.3,4.4,14.5,9.3c4,6.1,2.2,16.7,9.2,19.1
		c9.1,3.1,15.5-14.2,24.8-11.6c4.6,1.3,6.4,7,6.4,11.8s-1.1,9.9,0.9,14.3c7.7-0.4,17.2-2,19.4-9.4c0.3-1.1,0.4-2.2,0.4-3.3
		C724.6,148.3,716.2,149.8,709.3,150.1z"/>
</g>
<path class="st11" d="M890.1,396.5l11.6,12.3c0,0,9.3,67.7,13.9,74s15.6,31.5,5.3,50.4c0,0-3.3,10.3-1.3,14.6s-14.9,25.9-14.9,25.9
	s-22.2,19.9-26.9,22.9s-29.2,26.9-37.5,27.2s-11,10.6-11,10.6l-46.8,1.7c0,0-25.8-1.3-31.5,2.3c0,0,3-39.5-25.9-65.4l36.8-13.3
	c0,0,13.9-6,18.2-12.3c2.7-3.8,6.6-6.7,11-8.3c0,0,10.3-7.3,10.6-11.3s12.6-8.9,12.6-8.9l-6.9-59.2l3.7-98.2
	c0,0,11.6-82.3,36.2-77.6S890.1,396.5,890.1,396.5z"/>
<path class="st9" d="M894.1,396.5l11.6,12.3c0,0,9.3,67.7,13.9,74s15.6,31.5,5.3,50.4c0,0-3.3,10.3-1.3,14.6s-14.9,25.9-14.9,25.9
	s-22.2,19.9-26.9,22.9s-29.2,26.9-37.5,27.2s-11,10.6-11,10.6l-46.8,1.7c0,0-25.9-1.3-31.5,2.3c0,0,3-39.5-25.9-65.4l36.8-13.3
	c0,0,13.9-6,18.2-12.3c2.7-3.8,6.6-6.7,11-8.3c0,0,10.3-7.3,10.6-11.3s12.6-8.9,12.6-8.9l-6.9-59.2l3.7-98.2
	c0,0,11.6-82.3,36.2-77.6S894.1,396.5,894.1,396.5z"/>
<path class="st11" d="M850.9,495.7c0,0,34.2-9,43.1,2S850.9,495.7,850.9,495.7z"/>
<path class="st11" d="M842.9,510.8c11.6,8.1,47.4,8.5,47.4,8.5L842.9,510.8z"/>
<path class="st11" d="M860.5,551.4c1,0.3,24.6,25.5,34.5,17.9S860.5,551.4,860.5,551.4z"/>
<path class="st11" d="M542.3,339.8c0,0,6.9,47.8,3.5,67.2s9.1,43.6,9.1,43.6L542.3,339.8z"/>
<path class="st16" d="M388.6,359.2c-8,6.3-13.8,21.1-18.1,37.4c-7.4,28.5-9.8,61.4-9.8,61.4s-63.7-14.6-59.1-21.2
	c2.9-4.2-1-35.6-4.3-58.4c-2-13.5-3.7-23.9-3.7-23.9S410.5,341.9,388.6,359.2z"/>
<path class="st11" d="M388.6,357.9c-8,6.3-13.8,21.1-18.1,37.4c-25.9,7.9-53.9,0.9-73.1-18.1c-2-13.5-3.7-23.9-3.7-23.9
	S410.5,340.6,388.6,357.9z"/>
<path class="st16" d="M422.9,322.1c0,40.7-33,73.7-73.7,73.7c-40.7,0-73.7-33-73.7-73.7c0-40.7,33-73.7,73.7-73.7
	c22.4,0,43.5,10.1,57.5,27.6C417.2,289.1,422.9,305.4,422.9,322.1z"/>
<path class="st11" d="M481,782.7h-21l-1.8-37.1l-1.8-38.4c0,0,4.8-0.7,12.4-1.8l3.1-0.4h0.2c1.7,7.8,3.3,15.8,4.9,23.8
	c2.6,14.2,4,28.6,4.1,43c0,1,0,2,0,2.9C481.1,777.4,481,780.1,481,782.7z"/>
<path class="st6" d="M476.9,782.7H213.6c1.1-2.6,1.9-4.2,1.9-4.2s21.1-92.2,31.8-131.2c0,0,0-0.1,0-0.1c1.3-5.3,3-10.5,4.8-15.7l0,0
	c0.1-0.3,0.3-0.7,0.5-1c5.3-8.6,11.9-17.9,2.6-31.2s-6-71.7-6-71.7s11.3-49.8,23.2-76.3c1.8-4.1,4.4-7.8,7.6-11c1-1,2.1-2,3.3-2.8
	l0,0c0.9-0.7,1.8-1.3,2.8-1.9l0.2-0.1c5-2.8,10.6-4.6,16.3-5.1c4.1-0.4,8.2-0.3,12.2,0.3c19.4,2.8,34.9,7.6,47.2,13
	c33.4,14.7,43.5,34.3,43.7,34.7l0,0l0.1,0.2c1.3,3.1,20.9,48.9,28,70.2c1.8,5.6,2.8,9.5,2.4,10.5c-2,5.3,15.3,71.7,15.3,71.7
	s8,32,16,69.5c0.3,1.6,0.7,3.1,1,4.7c1.4,6.8,2.8,13.8,4.2,20.7c2.7,14.3,4,28.8,4.1,43.3C477,774,477,778.4,476.9,782.7z"/>
<path class="st11" d="M301.1,407.8c0,0-18.2-7-18,3.6s4.4,15.7,3.1,17.2s0.7,10.8,0.7,10.8s24.5,0,35.8,5.1s52.9,15.3,58.2,18.4
	s25,17,25,17l1.8-26.3c0,0-20.4-16.8-53.7-25.4S301.1,407.8,301.1,407.8z"/>
<path class="st6" d="M301.1,406.4c0,0-18.2-7-18,3.6s4.4,15.7,3.1,17.2s0.7,10.8,0.7,10.8s24.5,0,35.8,5.1s52.9,15.3,58.2,18.4
	s25,17,25,17l1.8-26.2c0,0-20.4-16.8-53.7-25.4S301.1,406.4,301.1,406.4z"/>
<path class="st11" d="M355.9,469.8c0,0,34.7,37.6,33,48C387.1,528.2,355.9,469.8,355.9,469.8z"/>
<path class="st17" d="M384.2,683.2c0,0-13.5,27.4-6.2,25.7S384.2,683.2,384.2,683.2z"/>
<path class="st11" d="M299.5,605.6c0,0-25.5,23.5-33,24.8s5.8,5.8,14.4,2.2s27-12.8,27-12.8L299.5,605.6z"/>
<path class="st16" d="M487.3,782.7h-59.4c-8.3-7.2-16.1-13.9-21.1-17.9c-8-6.4-13.8-15.9-17.5-23.5c-0.8-1.7-1.5-3.3-2.2-4.8
	c-1.1-2.5-2.1-5.1-2.9-7.8l44-26.1c2.4,2.1,4.7,4.3,6.8,6.7l0.5,0.6c2.4,2.9,4.6,6.2,4.8,8.8c0.2,3.1,8.9,15.2,17.8,26.8
	c9,11.8,18.2,23.1,18.8,23.8l0,0c0,0,1.5,2.1,4,5.2C482.7,776.9,484.9,779.7,487.3,782.7z"/>
<path class="st11" d="M406.7,276c-2.1,4.8-4,9.7-4.3,15c-0.8,15.3,0.5,49.5-16.5,57.2c-8.4,3.8-17.4-4.5-26.6-4.7
	c-6.6-0.1-12.7,4.1-16.7,9.3s-6.5,11.5-9.5,17.4c-2.7,5.4-5.7,10.6-9.2,15.5c-1,1.5-2.2,2.9-3.4,4.3c-37.5-15.8-55-59-39.2-96.5
	s59-55,96.5-39.2C389.1,259.1,399,266.5,406.7,276L406.7,276z"/>
<path class="st18" d="M401.1,288.3c-0.8,15.3,0.5,49.5-16.5,57.2c-8.4,3.8-17.4-4.5-26.6-4.7c-6.6-0.1-12.7,4.1-16.7,9.3
	s-6.5,11.5-9.5,17.4c-2.7,5.4-5.7,10.6-9.2,15.5c-2.1,2.9-4.3,5.9-7.5,7.5c-5.5,2.9-12.2,1.3-18.1-0.6c-7.7-2.4-15.2-5.1-22.7-8.2
	c0.2-1.1,0.3-2.3,0.3-3.4c-0.2,0.4-0.5,0.8-0.7,1.2l-0.5,0.8c-0.9,1.5-1.7,3-2.4,4.5c-0.3,0.6-0.6,1.2-0.8,1.8
	c-1,2.3-1.6,4.7-1.9,7.2c-0.5,6.7,2.8,13,5.7,19c11.2,23.2,18.2,50.3,9.7,74.7c-3.7,10.6-10,20-14.6,30.2
	c-8.1,18.1-10.5,38.3-6.8,57.8c2.3,12.1,6.9,24.1,5.8,36.4c-2,21.2-20.2,36.9-38.5,47.7c-9.9,5.8-22,11-32.4,6.4
	c6.7-7.8,8.4-18.6,9.8-28.8c3.9-27.8,7.9-55.5,11.9-83.3c1.6-11.1,3.2-22.1,4.7-33.2c2.9-20.8,5.9-41.8,4.1-62.7
	c-1.3-15.4-5.1-31.8,1.6-45.7c3.5-7.4,9.8-13.5,11.8-21.5c1.6-6.5,0.1-13.4,1.2-19.9c0.6-3,1.6-5.9,2.9-8.6c1.7-3.7,4-7.2,6.7-10.2
	c-2.7-0.8-5.2-1.9-6.7-4.1c4.3-2.8,5-9.1,3-13.9s-5.9-8.4-9.4-12.1s-6.9-8.1-7.3-13.2c-0.9-9.7,8.9-17.2,10.6-26.8
	c1.7-9.8-5.1-19.2-4.6-29.1c0.6-11.9,11.6-20.6,22.4-25.6c16.3-7.6,34.4-10.7,52.3-9c14.6,1.4,28.7,5.9,43.2,7.6
	c8.8,1,17.7,1.1,26.4,2.6s17.4,4.8,23.6,11.2C421.3,256.7,402,270.6,401.1,288.3z"/>
<path class="st11" d="M387.5,741.3c-5.1-2.2-14.4-0.9-30.3-5.7s-19-26.8-19-26.8v-0.1l0,0c-0.2-0.5-1.7-3.8-11.7-15.2
	c-11.1-12.6-35-76.3-35-76.3s-21.2-22.8-20.5-31.2s-3.8-30.8-3.3-55.8c0.4-25,47.8-41.6,47.8-41.6c91.1-16.2,69.7,88.9,67.2,96.9
	s10.2,29.5,10.2,29.5c-1.8,9.4,7.3,23.8,7.3,23.8s2.2,12.8,2.6,17.7c0,0.2,0.1,0.4,0.1,0.7c1.5,4.6,13.4,8.8,18.2,11.3
	c5.1,2.7,21.5,25.9,21.5,25.9C446.1,711.5,392.6,743.6,387.5,741.3z"/>
<path class="st6" d="M390.2,737.3c-5.1-2.2-14.4-0.9-30.3-5.8s-19-26.8-19-26.8v-0.1l0,0c-0.2-0.5-1.7-3.8-11.7-15.2
	c-11.1-12.6-35-76.3-35-76.3s-21.2-22.8-20.6-31.2s-3.8-30.8-3.3-55.7c0.4-25,47.7-41.6,47.7-41.6c91.1-16.2,69.7,88.9,67.2,96.9
	s10.2,29.5,10.2,29.5c-1.8,9.4,7.3,23.8,7.3,23.8s2.2,12.8,2.7,17.7c0,0.2,0.1,0.4,0.1,0.7c1.5,4.6,13.4,8.8,18.2,11.3
	c5.1,2.7,21.5,25.9,21.5,25.9C448.8,707.5,395.3,739.6,390.2,737.3z"/>
<path class="st11" d="M319.9,539.7c0,0,39.8,42,50.2,42S319.9,539.7,319.9,539.7z"/>
<path class="st6" d="M390.2,737.3c-5.1-2.2-14.4-0.9-30.3-5.8s-19-26.8-19-26.8v-0.1l0,0c10.5-7,37.3-26.8,47.8-34
	c7.4-5.1,13.5-12.5,17-17.5c1.5,4.6,13.4,8.8,18.2,11.3c5.1,2.7,21.5,25.9,21.5,25.9C448.8,707.5,395.3,739.6,390.2,737.3z"/>
<g class="st15">
	<path d="M245.1,348.2c0,0.1,0.1,0.1,0.2,0.2c0.3-0.4,0.6-0.8,0.9-1.1C245.8,347.6,245.5,347.9,245.1,348.2z"/>
	<path d="M268.3,394c0.4-5.5,3.4-10.4,6.2-15.3c-1.8-0.7-3.6-1.4-5.4-2.1c0.2-1.1,0.3-2.3,0.3-3.4c-2.8,5-5.9,9.9-6.3,15.5
		c-0.5,6.7,2.8,13,5.7,19c11.2,23.2,18.2,50.3,9.7,74.7c-3.7,10.6-10,20-14.6,30.2c-8.1,18.1-10.5,38.3-6.8,57.8
		c2.3,12.1,6.9,24.1,5.8,36.4c-2,21.2-20.2,36.9-38.5,47.7c-7.5,4.4-16.2,8.5-24.5,8.2c-0.8,1.2-1.6,2.4-2.6,3.5
		c10.5,4.6,22.6-0.6,32.4-6.4c18.3-10.8,36.6-26.5,38.6-47.7c1.1-12.3-3.5-24.3-5.8-36.4c-3.7-19.5-1.3-39.7,6.8-57.8
		c4.6-10.2,11-19.7,14.6-30.2c8.5-24.4,1.5-51.5-9.7-74.7C271.1,407,267.8,400.7,268.3,394z"/>
	<path d="M405.2,240c-1-1-2-1.9-3.2-2.8c12.1,15.7-5.4,29.1-6.2,46c-0.8,15.3,0.5,49.5-16.5,57.2c-8.4,3.8-17.4-4.5-26.6-4.7
		c-6.6-0.1-12.7,4.1-16.7,9.3s-6.5,11.5-9.5,17.4c-2.7,5.4-5.7,10.6-9.2,15.5c-2,2.9-4.3,5.9-7.5,7.5c-5.5,2.9-12.2,1.3-18.1-0.6
		c-5.8-1.8-11.5-3.8-17.1-6c0,1-0.1,2.1-0.3,3.1c7.5,3,15,5.8,22.7,8.2c5.9,1.9,12.6,3.5,18.1,0.6c3.2-1.6,5.5-4.6,7.5-7.5
		c3.5-4.9,6.5-10.1,9.2-15.5c2.9-5.9,5.4-12.2,9.5-17.4s10.1-9.4,16.7-9.3c9.2,0.2,18.2,8.5,26.6,4.7c17-7.7,15.7-41.9,16.5-57.2
		C402,270.7,421.3,256.8,405.2,240z"/>
</g>
<path class="st11" d="M273.4,380.4c-0.9,1.5-1.7,3-2.4,4.5c-0.3,0.6-0.6,1.2-0.8,1.8c-5.2-5.3-18-17.8-25.1-21.7
	c1.7-3.7,4-7.2,6.7-10.2C251.7,354.8,268.7,363.8,273.4,380.4z"/>
<path class="st19" d="M273.9,379.6c-3.9-17.8-22.1-27.4-22.1-27.4c-2.7,3.1-5,6.5-6.7,10.2c7.5,4.1,21.4,17.9,25.9,22.6L273.9,379.6
	z"/>
</svg>
