<svg width="782" height="527" viewBox="0 0 782 527" fill="none" xmlns="http://www.w3.org/2000/svg">
<path d="M763.937 218.326H48.1626C45.1233 218.326 42.2086 219.534 40.0595 221.683C37.9105 223.832 36.7031 226.747 36.7031 229.786C36.7031 232.825 37.9105 235.74 40.0595 237.889C42.2086 240.038 45.1233 241.245 48.1626 241.245H68.4371V515.391C68.4371 518.43 69.6444 521.345 71.7935 523.494C73.9425 525.643 76.8573 526.85 79.8965 526.85C82.9357 526.85 85.8505 525.643 87.9996 523.494C90.1486 521.345 91.356 518.43 91.356 515.391L91.5301 241.245H666.012L718.981 515.391C718.981 518.43 720.188 521.345 722.337 523.494C724.487 525.643 727.401 526.85 730.441 526.85C733.48 526.85 736.395 525.643 738.544 523.494C740.693 521.345 741.9 518.43 741.9 515.391L745.234 241.245H763.937C766.977 241.245 769.891 240.038 772.04 237.889C774.19 235.74 775.397 232.825 775.397 229.786C775.397 226.747 774.19 223.832 772.04 221.683C769.891 219.534 766.977 218.326 763.937 218.326V218.326Z" fill="#2A4084"/>
<path d="M172.235 167.265V215.792H50.6548C47.4685 215.903 44.2915 215.385 41.3052 214.268C38.319 213.151 35.582 211.457 33.2505 209.283C30.919 207.108 29.0387 204.495 27.7169 201.594C26.3951 198.692 25.6578 195.559 25.5469 192.373C25.4361 189.186 25.9539 186.009 27.0708 183.023C28.1878 180.037 29.882 177.3 32.0567 174.968C34.2314 172.637 36.8441 170.756 39.7455 169.435C42.6469 168.113 45.7802 167.376 48.9666 167.265C49.5291 167.245 50.0919 167.245 50.6548 167.265L172.235 167.265Z" fill="#F2F2F2"/>
<path d="M175.22 215.419C175.22 215.914 175.023 216.389 174.673 216.739C174.323 217.089 173.848 217.285 173.353 217.285H48.488C41.7095 217.281 35.2101 214.585 30.4186 209.79C25.6271 204.995 22.9355 198.494 22.9355 191.715C22.9355 184.937 25.6271 178.435 30.4186 173.64C35.2101 168.846 41.7095 166.15 48.488 166.145H173.353C173.599 166.144 173.842 166.192 174.069 166.285C174.296 166.379 174.502 166.516 174.676 166.69C174.85 166.863 174.988 167.069 175.082 167.296C175.176 167.523 175.225 167.766 175.225 168.011C175.225 168.257 175.176 168.5 175.082 168.727C174.988 168.953 174.85 169.159 174.676 169.333C174.502 169.506 174.296 169.644 174.069 169.737C173.842 169.831 173.599 169.878 173.353 169.878H48.488C42.7021 169.886 37.1562 172.191 33.068 176.285C28.9798 180.38 26.6836 185.929 26.6836 191.715C26.6836 197.501 28.9798 203.05 33.068 207.145C37.1562 211.239 42.7021 213.544 48.488 213.553H173.353C173.848 213.553 174.323 213.749 174.673 214.099C175.023 214.449 175.22 214.924 175.22 215.419V215.419Z" fill="#293B6B"/>
<path d="M172.233 178.463H41.5813C41.4826 178.464 41.3877 178.425 41.3173 178.356C41.247 178.287 41.207 178.192 41.2061 178.093C41.2052 177.995 41.2434 177.9 41.3125 177.829C41.3815 177.758 41.4757 177.718 41.5745 177.717H172.233C172.331 177.718 172.425 177.758 172.494 177.827C172.563 177.897 172.602 177.992 172.602 178.09C172.602 178.188 172.563 178.283 172.494 178.353C172.425 178.423 172.331 178.462 172.233 178.463Z" fill="#CCCCCC"/>
<path d="M172.233 187.422H41.5813C41.4826 187.423 41.3877 187.384 41.3173 187.315C41.247 187.246 41.207 187.151 41.2061 187.052C41.2052 186.954 41.2434 186.859 41.3125 186.788C41.3815 186.717 41.4757 186.677 41.5745 186.676H172.233C172.331 186.677 172.425 186.717 172.494 186.786C172.563 186.856 172.602 186.951 172.602 187.049C172.602 187.147 172.563 187.242 172.494 187.312C172.425 187.382 172.331 187.421 172.233 187.422Z" fill="#CCCCCC"/>
<path d="M172.233 196.381H41.5813C41.4826 196.382 41.3877 196.343 41.3173 196.274C41.247 196.204 41.207 196.11 41.2061 196.011C41.2052 195.912 41.2434 195.817 41.3125 195.747C41.3815 195.676 41.4757 195.636 41.5745 195.635H172.233C172.331 195.636 172.425 195.675 172.494 195.745C172.563 195.815 172.602 195.909 172.602 196.008C172.602 196.106 172.563 196.201 172.494 196.27C172.425 196.34 172.331 196.38 172.233 196.381Z" fill="#CCCCCC"/>
<path d="M172.233 205.34H41.5813C41.4826 205.341 41.3877 205.302 41.3173 205.233C41.247 205.164 41.207 205.069 41.2061 204.97C41.2052 204.872 41.2434 204.777 41.3125 204.706C41.3815 204.635 41.4757 204.595 41.5745 204.594H172.233C172.331 204.595 172.425 204.634 172.494 204.704C172.563 204.774 172.602 204.869 172.602 204.967C172.602 205.065 172.563 205.16 172.494 205.23C172.425 205.3 172.331 205.339 172.233 205.34Z" fill="#CCCCCC"/>
<path d="M149.317 116.138V164.665H27.7369C21.3017 164.889 15.0412 162.548 10.3325 158.156C5.62389 153.764 2.85283 147.681 2.62895 141.246C2.40508 134.811 4.74673 128.55 9.13877 123.841C13.5308 119.133 19.6135 116.362 26.0487 116.138C26.6112 116.118 27.1739 116.118 27.7369 116.138H149.317Z" fill="#F2F2F2"/>
<path d="M152.302 164.292C152.302 164.787 152.105 165.262 151.755 165.612C151.405 165.962 150.931 166.159 150.436 166.159H25.5703C18.7887 166.159 12.2847 163.465 7.48937 158.67C2.694 153.874 0 147.37 0 140.589C0 133.807 2.694 127.303 7.48937 122.508C12.2847 117.712 18.7887 115.018 25.5703 115.018H150.436C150.681 115.018 150.923 115.067 151.15 115.16C151.376 115.254 151.582 115.392 151.755 115.565C151.929 115.738 152.066 115.944 152.16 116.17C152.254 116.397 152.302 116.64 152.302 116.885C152.302 117.13 152.254 117.373 152.16 117.599C152.066 117.825 151.929 118.031 151.755 118.205C151.582 118.378 151.376 118.515 151.15 118.609C150.923 118.703 150.681 118.751 150.436 118.751H25.5703C19.7787 118.751 14.2242 121.052 10.1289 125.147C6.03362 129.243 3.7329 134.797 3.7329 140.589C3.7329 146.38 6.03362 151.935 10.1289 156.03C14.2242 160.125 19.7787 162.426 25.5703 162.426H150.436C150.931 162.426 151.405 162.623 151.755 162.973C152.105 163.323 152.302 163.798 152.302 164.292Z" fill="#3F3D56"/>
<path d="M149.316 127.336H18.6644C18.5656 127.337 18.4707 127.298 18.4004 127.229C18.33 127.16 18.29 127.065 18.2891 126.967C18.2882 126.868 18.3264 126.773 18.3955 126.702C18.4645 126.632 18.5588 126.591 18.6575 126.59H149.316C149.414 126.591 149.508 126.631 149.577 126.7C149.646 126.77 149.685 126.865 149.685 126.963C149.685 127.061 149.646 127.156 149.577 127.226C149.508 127.296 149.414 127.335 149.316 127.336V127.336Z" fill="#CCCCCC"/>
<path d="M149.316 136.296H18.6644C18.5656 136.296 18.4707 136.258 18.4004 136.188C18.33 136.119 18.29 136.025 18.2891 135.926C18.2882 135.827 18.3264 135.732 18.3955 135.662C18.4645 135.591 18.5588 135.551 18.6575 135.549H149.316C149.414 135.55 149.508 135.59 149.577 135.66C149.646 135.73 149.685 135.824 149.685 135.923C149.685 136.021 149.646 136.115 149.577 136.185C149.508 136.255 149.414 136.295 149.316 136.296Z" fill="#CCCCCC"/>
<path d="M149.316 145.255H18.6644C18.5656 145.255 18.4707 145.217 18.4004 145.147C18.33 145.078 18.29 144.984 18.2891 144.885C18.2882 144.786 18.3264 144.691 18.3955 144.62C18.4645 144.55 18.5588 144.509 18.6575 144.508H149.316C149.414 144.509 149.508 144.549 149.577 144.619C149.646 144.689 149.685 144.783 149.685 144.881C149.685 144.98 149.646 145.074 149.577 145.144C149.508 145.214 149.414 145.254 149.316 145.255Z" fill="#CCCCCC"/>
<path d="M149.316 154.214H18.6644C18.5656 154.214 18.4707 154.176 18.4004 154.106C18.33 154.037 18.29 153.943 18.2891 153.844C18.2882 153.745 18.3264 153.65 18.3955 153.58C18.4645 153.509 18.5588 153.469 18.6575 153.467H149.316C149.414 153.468 149.508 153.508 149.577 153.578C149.646 153.648 149.685 153.742 149.685 153.841C149.685 153.939 149.646 154.033 149.577 154.103C149.508 154.173 149.414 154.213 149.316 154.214V154.214Z" fill="#CCCCCC"/>
<path d="M290.749 390.045V347.733C290.749 345.863 290.006 344.069 288.684 342.746C287.361 341.424 285.567 340.681 283.697 340.681H123.265C121.395 340.681 119.601 341.424 118.278 342.746C116.956 344.069 116.213 345.863 116.213 347.733V390.045H290.749Z" fill="#293B6B"/>
<path d="M290.749 405.912H116.213V460.564H290.749V405.912Z" fill="#293B6B"/>
<path d="M116.213 476.432V518.744C116.213 520.614 116.956 522.408 118.278 523.73C119.601 525.053 121.395 525.796 123.265 525.796H283.697C285.567 525.796 287.361 525.053 288.684 523.73C290.006 522.408 290.749 520.614 290.749 518.744V476.432H116.213Z" fill="#293B6B"/>
<path d="M202.599 372.415C205.52 372.415 207.888 370.047 207.888 367.126C207.888 364.205 205.52 361.837 202.599 361.837C199.678 361.837 197.31 364.205 197.31 367.126C197.31 370.047 199.678 372.415 202.599 372.415Z" fill="white"/>
<path d="M202.599 442.935C205.52 442.935 207.888 440.567 207.888 437.646C207.888 434.725 205.52 432.357 202.599 432.357C199.678 432.357 197.31 434.725 197.31 437.646C197.31 440.567 199.678 442.935 202.599 442.935Z" fill="white"/>
<path d="M202.883 511.961C205.804 511.961 208.172 509.593 208.172 506.672C208.172 503.751 205.804 501.383 202.883 501.383C199.962 501.383 197.594 503.751 197.594 506.672C197.594 509.593 199.962 511.961 202.883 511.961Z" fill="white"/>
<path d="M270.961 292.437V340.965H149.382C142.949 341.184 136.693 338.84 131.988 334.449C127.283 330.057 124.514 323.977 124.29 317.545C124.066 311.113 126.405 304.855 130.793 300.147C135.182 295.439 141.26 292.666 147.692 292.437C148.255 292.417 148.818 292.417 149.382 292.437H270.961Z" fill="#F2F2F2"/>
<path d="M273.949 340.592C273.949 341.087 273.752 341.561 273.402 341.911C273.052 342.261 272.578 342.458 272.083 342.458H147.217C140.437 342.46 133.934 339.769 129.138 334.977C124.341 330.184 121.645 323.683 121.641 316.903C121.637 310.123 124.325 303.619 129.116 298.821C133.906 294.023 140.406 291.324 147.187 291.318H272.083C272.328 291.317 272.571 291.365 272.798 291.458C273.025 291.552 273.232 291.689 273.405 291.863C273.579 292.036 273.717 292.242 273.811 292.469C273.905 292.695 273.954 292.939 273.954 293.184C273.954 293.43 273.905 293.673 273.811 293.899C273.717 294.126 273.579 294.332 273.405 294.506C273.232 294.679 273.025 294.816 272.798 294.91C272.571 295.003 272.328 295.051 272.083 295.051H147.217C141.431 295.058 135.883 297.362 131.794 301.457C127.705 305.551 125.408 311.101 125.408 316.888C125.408 322.675 127.705 328.225 131.794 332.319C135.883 336.414 141.431 338.718 147.217 338.725H272.083C272.578 338.726 273.052 338.922 273.402 339.272C273.752 339.622 273.949 340.097 273.949 340.592V340.592Z" fill="#3F3D56"/>
<path d="M270.96 303.636H140.309C140.21 303.637 140.115 303.598 140.045 303.529C139.975 303.459 139.935 303.365 139.934 303.266C139.933 303.168 139.971 303.073 140.04 303.002C140.109 302.931 140.203 302.891 140.302 302.89H270.96C271.059 302.891 271.153 302.93 271.222 303C271.291 303.07 271.33 303.165 271.33 303.263C271.33 303.361 271.291 303.456 271.222 303.526C271.153 303.595 271.059 303.635 270.96 303.636H270.96Z" fill="#CCCCCC"/>
<path d="M270.96 312.595H140.309C140.21 312.595 140.115 312.557 140.045 312.487C139.975 312.418 139.935 312.324 139.934 312.225C139.933 312.126 139.971 312.031 140.04 311.96C140.109 311.89 140.203 311.849 140.302 311.848H270.96C271.059 311.849 271.153 311.889 271.222 311.959C271.291 312.029 271.33 312.123 271.33 312.221C271.33 312.32 271.291 312.414 271.222 312.484C271.153 312.554 271.059 312.594 270.96 312.595H270.96Z" fill="#CCCCCC"/>
<path d="M270.96 321.553H140.309C140.21 321.554 140.115 321.515 140.045 321.446C139.975 321.377 139.935 321.282 139.934 321.184C139.933 321.085 139.971 320.99 140.04 320.919C140.109 320.849 140.203 320.808 140.302 320.807H270.96C271.059 320.808 271.153 320.848 271.222 320.918C271.291 320.987 271.33 321.082 271.33 321.18C271.33 321.279 271.291 321.373 271.222 321.443C271.153 321.513 271.059 321.552 270.96 321.553H270.96Z" fill="#CCCCCC"/>
<path d="M270.96 330.513H140.309C140.21 330.513 140.115 330.475 140.045 330.405C139.975 330.336 139.935 330.242 139.934 330.143C139.933 330.044 139.971 329.949 140.04 329.878C140.109 329.808 140.203 329.767 140.302 329.766H270.96C271.059 329.767 271.153 329.807 271.222 329.877C271.291 329.947 271.33 330.041 271.33 330.139C271.33 330.238 271.291 330.332 271.222 330.402C271.153 330.472 271.059 330.512 270.96 330.513H270.96Z" fill="#CCCCCC"/>
<path d="M128.172 99.9492H72.7793C72.2537 99.9488 71.7349 100.069 71.2634 100.302L57.2826 107.301C56.8225 107.496 56.4302 107.823 56.1543 108.24C55.8785 108.657 55.7314 109.146 55.7314 109.646C55.7314 110.146 55.8785 110.634 56.1543 111.051C56.4302 111.468 56.8225 111.795 57.2826 111.99L71.2634 118.989C71.7349 119.222 72.2536 119.342 72.7793 119.342H128.172C128.936 119.386 129.686 119.128 130.26 118.623C130.834 118.118 131.186 117.407 131.24 116.645V102.647C131.186 101.884 130.834 101.173 130.26 100.668C129.686 100.163 128.936 99.905 128.172 99.9492V99.9492Z" fill="#3F3D56"/>
<path d="M131.24 102.647V116.645C131.186 117.407 130.834 118.118 130.259 118.623C129.685 119.128 128.935 119.386 128.172 119.342H117.136V99.9492H128.172C128.935 99.905 129.685 100.163 130.259 100.668C130.834 101.173 131.186 101.884 131.24 102.647V102.647Z" fill="#2A4084"/>
<path d="M441.608 217.225L435.76 214.762L431.748 185.443H378.319L373.97 214.643L368.738 217.259C368.487 217.384 368.287 217.59 368.168 217.844C368.049 218.097 368.02 218.383 368.084 218.656C368.148 218.928 368.303 219.171 368.522 219.344C368.742 219.518 369.013 219.613 369.293 219.613H441.126C441.413 219.613 441.691 219.513 441.913 219.332C442.135 219.15 442.288 218.897 442.344 218.616C442.401 218.335 442.359 218.043 442.225 217.789C442.091 217.536 441.873 217.336 441.608 217.225V217.225Z" fill="#2A4084"/>
<path d="M536.555 189.343H274.098C272.721 189.34 271.402 188.791 270.429 187.816C269.456 186.842 268.91 185.521 268.91 184.144V147.134H541.743V184.144C541.743 185.521 541.197 186.842 540.224 187.816C539.252 188.791 537.932 189.34 536.555 189.343V189.343Z" fill="#2A4084"/>
<path d="M542.017 164.626H268.67V6.26818C268.672 4.60631 269.333 3.01306 270.508 1.83796C271.683 0.662854 273.276 0.00185953 274.938 0H535.749C537.41 0.0018595 539.004 0.662856 540.179 1.83796C541.354 3.01305 542.015 4.6063 542.017 6.26818L542.017 164.626Z" fill="#293B6B"/>
<path d="M525.691 153.132H284.996C283.714 153.131 282.486 152.621 281.58 151.715C280.674 150.81 280.165 149.581 280.163 148.3V16.3263C280.165 15.0451 280.674 13.8167 281.58 12.9107C282.486 12.0047 283.714 11.4951 284.996 11.4937H525.691C526.972 11.4951 528.2 12.0047 529.106 12.9107C530.012 13.8167 530.522 15.0451 530.523 16.3263V148.3C530.522 149.581 530.012 150.81 529.106 151.715C528.2 152.621 526.972 153.131 525.691 153.132V153.132Z" fill="white"/>
<path d="M462.297 199.699C463.851 198.264 465.701 197.187 467.717 196.544C469.732 195.9 471.864 195.707 473.962 195.977C476.06 196.247 478.074 196.973 479.861 198.106C481.648 199.238 483.165 200.748 484.305 202.53L516.862 196.742L525.205 215.669L479.113 223.197C475.993 224.914 472.351 225.427 468.878 224.638C465.404 223.849 462.341 221.814 460.268 218.917C458.196 216.021 457.257 212.465 457.631 208.923C458.005 205.381 459.666 202.099 462.297 199.699V199.699Z" fill="#FFB6B6"/>
<path d="M492.438 223.866L526.38 223.443L530.676 223.385L599.731 222.515C599.731 222.515 618.483 204.625 634.812 186.206L632.523 169.652C630.291 153.406 622.232 138.524 609.846 127.777C586.459 143.403 572.897 174.335 572.897 174.335L530.081 184.576L525.797 185.6L499.193 191.957L492.438 223.866Z" fill="#293B6B"/>
<path d="M666.186 325.613H602.831C602.831 328.327 533.575 330.531 533.575 330.531C532.047 331.681 530.655 333.001 529.424 334.465C525.727 338.874 523.707 344.448 523.719 350.202V354.136C523.721 360.657 526.313 366.91 530.923 371.521C535.534 376.132 541.787 378.723 548.308 378.726H666.186C672.706 378.72 678.957 376.127 683.567 371.517C688.177 366.907 690.77 360.656 690.776 354.136V350.202C690.767 343.683 688.173 337.434 683.564 332.825C678.954 328.215 672.705 325.622 666.186 325.613V325.613Z" fill="#E6E8EA"/>
<path d="M620.117 377.749H594.544V525.356H620.117V377.749Z" fill="#E4E4E4"/>
<path d="M521.76 524.458C521.76 527.221 560.511 525.527 608.314 525.527C656.117 525.527 694.868 527.221 694.868 524.458C694.868 521.695 656.117 499.784 608.314 499.784C560.511 499.784 521.76 521.695 521.76 524.458Z" fill="#E4E4E4"/>
<path d="M504.579 507.592L485.546 507.591L476.492 434.181L504.581 434.182L504.579 507.592Z" fill="#FFB6B6"/>
<path d="M509.434 526.041L448.065 526.039V525.263C448.066 518.928 450.583 512.852 455.062 508.373C459.542 503.894 465.617 501.377 471.952 501.377H471.953L509.435 501.378L509.434 526.041Z" fill="#2F2E41"/>
<path d="M448.328 507.592L429.295 507.591L420.241 434.181L448.33 434.182L448.328 507.592Z" fill="#FFB6B6"/>
<path d="M453.183 526.041L391.814 526.039V525.263C391.815 518.928 394.332 512.852 398.811 508.373C403.291 503.894 409.366 501.377 415.701 501.377H415.702L453.184 501.378L453.183 526.041Z" fill="#2F2E41"/>
<path d="M618.815 84.9603C637.091 84.9603 651.907 70.1445 651.907 51.8683C651.907 33.5921 637.091 18.7764 618.815 18.7764C600.538 18.7764 585.723 33.5921 585.723 51.8683C585.723 70.1445 600.538 84.9603 618.815 84.9603Z" fill="#FFB6B6"/>
<path d="M672.375 278.602C672.375 278.602 683.478 337.314 641.232 344.791C598.985 352.268 538.001 357.522 538.001 357.522L510.616 485.294L473.823 482.009C473.823 482.009 478.717 328.201 490.75 316.167C502.783 304.134 578.839 268.103 578.839 268.103L672.375 278.602Z" fill="white"/>
<path d="M589.865 253.994L571.389 272.53C571.389 272.53 437.977 294.019 432.83 324.833C425.06 371.354 415.882 472.518 415.882 472.518L455.993 469.51L471.723 354.514L535.901 339.915L608.918 300.123L589.865 253.994Z" fill="white"/>
<path d="M650.661 32.1147C647.394 25.9514 643.243 13.6679 636.65 11.3898C632.988 10.1757 629.204 9.36953 625.365 8.98589L614.159 13.2963L620.258 8.55247C619.07 8.48172 617.884 8.42389 616.697 8.37896L609.136 11.2872L613.004 8.27833C605.955 8.20598 598.678 8.93897 593.216 13.2304C588.559 16.8889 583.946 30.7479 583.2 36.6224C582.402 42.2423 582.681 47.9625 584.022 53.478L585.937 55.2989C586.607 53.7629 587.111 52.1598 587.439 50.5167C588.126 47.4466 589.445 44.5533 591.311 42.021C593.178 39.4887 595.551 37.3731 598.281 35.8089L598.385 35.7501C601.597 33.9425 605.494 34.0258 609.177 34.1584L626.669 34.7879C630.878 34.9393 635.409 35.2056 638.69 37.8455C640.776 39.7928 642.415 42.168 643.497 44.8083C645.127 48.0988 648.313 60.5098 648.313 60.5098C648.313 60.5098 650.115 58.1671 650.979 59.9108C652.365 55.3614 653.207 50.664 653.489 45.9167C653.764 41.1482 652.789 36.3905 650.661 32.1147V32.1147Z" fill="#2F2E41"/>
<path d="M766.4 66.4008C764.289 66.5397 762.234 67.1399 760.381 68.1589C758.527 69.1779 756.919 70.5911 755.67 72.2987C754.421 74.0064 753.562 75.9671 753.153 78.0426C752.744 80.1182 752.796 82.2582 753.303 84.3119L726.692 103.941L734.677 123.022L771.867 94.7737C775.261 93.6923 778.14 91.4037 779.959 88.3414C781.778 85.2792 782.41 81.6562 781.736 78.1588C781.062 74.6615 779.129 71.5329 776.302 69.3658C773.476 67.1987 769.952 66.1437 766.4 66.4008V66.4008Z" fill="#FFB6B6"/>
<path d="M762.116 106.475L695.405 180.565C695.405 180.565 663.503 170.352 638.83 159.28L627.746 125.236C625.172 117.339 624.074 109.035 624.506 100.739C658.709 91.6379 698.492 125.503 698.492 125.503L748.427 86.3882L762.116 106.475Z" fill="#293B6B"/>
<path d="M606.458 284.074C594.556 279.962 582.249 275.711 568.974 274.115L568.404 274.047L568.562 273.495C582.303 225.246 578.873 194.382 572.139 148.02C570.707 138.019 572.547 127.824 577.385 118.955C582.223 110.087 589.799 103.02 598.983 98.8111L599.065 98.7743L636.978 96.3651L637.064 96.3599L664.638 104.47C668.605 105.645 672.076 108.088 674.522 111.425C676.967 114.762 678.25 118.809 678.176 122.945C677.877 138.192 678.511 155.215 679.181 173.237C680.686 213.669 682.242 255.477 673.413 282.603L673.367 282.745L673.249 282.838C665.132 289.448 654.964 293.02 644.496 292.938C632.12 292.938 619.489 288.575 606.458 284.074Z" fill="#293B6B"/>
</svg>
