<svg width="324" height="335" viewBox="0 0 324 335" fill="none" xmlns="http://www.w3.org/2000/svg">
<path d="M9.11725 294.83C6.07817 294.83 3.88327 294.323 2.36373 293.479C0.844189 292.635 0.168838 291.453 0.168838 290.271C0.168838 289.427 0.337676 288.583 0.506514 287.57C0.84419 286.557 1.18187 285.544 1.85722 284.7C2.53257 285.375 3.5456 285.881 4.55862 286.219C5.74049 286.726 6.92236 286.894 8.10422 286.894C9.96144 286.894 11.3121 286.388 11.9875 285.544C12.6628 284.531 13.0005 283.349 13.0005 281.829C13.0005 280.647 12.8317 279.466 12.3252 278.453C11.8187 277.439 11.1433 276.089 9.96144 274.569L3.71443 266.296C2.19489 264.27 1.18187 262.413 0.675351 260.893C0.168838 259.374 0 257.854 0 256.335C0 253.296 1.01303 250.763 3.03908 248.906C5.06514 247.049 8.10422 246.036 11.9875 246.036C15.3643 246.036 17.8968 246.373 19.2475 247.049C20.5982 247.724 21.2736 248.568 21.2736 249.75C21.2736 250.425 21.1047 251.101 20.9359 251.776C20.7671 252.451 20.2606 253.296 19.5852 253.971C19.2475 253.633 18.4033 253.465 17.3903 253.127C16.2084 252.789 15.0266 252.62 13.6759 252.62C11.9875 252.62 10.6368 252.958 9.7926 253.465C8.77957 253.971 8.4419 254.815 8.4419 255.997C8.4419 257.01 8.61073 258.023 8.94841 258.867C9.28609 259.712 9.96144 260.725 10.8056 262.075L17.3903 270.348C19.0787 272.374 20.0917 274.232 20.5982 275.92C21.1047 277.608 21.4424 279.466 21.4424 281.323C21.4424 283.518 21.1047 285.713 20.4294 287.739C19.754 289.765 18.5722 291.453 16.715 292.635C15.0266 294.154 12.494 294.83 9.11725 294.83Z" fill="#293B6B"/>
<path d="M36.9745 294.323C36.468 294.323 35.7927 294.323 34.9485 294.323C34.1043 294.323 33.0913 294.155 32.2471 294.155L43.5592 248.231C43.7281 247.218 44.7411 246.88 46.5983 246.88C47.2736 246.88 47.949 246.88 48.4555 246.88C49.1309 246.88 49.6374 247.049 50.1439 247.049L61.456 293.141C61.6249 293.648 61.456 293.986 60.9495 294.155C60.6118 294.323 59.5988 294.492 58.0793 294.492C57.5728 294.492 56.8974 294.492 56.2221 294.492C55.5467 294.492 54.7025 294.492 53.6895 294.323L48.7932 270.348C48.6243 269.166 48.2867 267.816 48.1178 266.465C47.949 265.114 47.6113 263.595 47.4425 262.075C47.2736 260.556 47.1048 259.036 46.936 257.685C46.7671 259.036 46.5983 260.556 46.4295 262.075C46.2606 263.595 46.0918 265.114 45.7541 266.465C45.5853 267.816 45.2476 269.166 45.0788 270.348L40.3513 292.973C40.1825 293.479 40.0136 293.817 39.6759 293.986C39.3383 294.154 38.4941 294.323 36.9745 294.323ZM39.8448 283.349V276.427H55.209V283.349H39.8448Z" fill="#293B6B"/>
<path d="M73.1064 294.154V248.568C73.1064 247.893 73.2753 247.555 73.4441 247.217C73.613 246.88 74.2883 246.711 75.3013 246.711C76.3144 246.711 78.1716 246.711 80.5353 246.711V287.063H90.1591V292.804C90.1591 293.31 89.9902 293.648 89.8214 293.817C89.6526 293.986 89.3149 294.154 88.8084 294.154H73.1064V294.154Z" fill="#293B6B"/>
<path d="M114.81 294.83C112.108 294.83 110.082 294.492 108.394 293.817C106.874 293.141 105.524 292.128 104.679 290.946C103.835 289.765 103.329 288.245 102.991 286.557C102.653 284.868 102.653 283.18 102.653 281.323V248.062C102.653 247.555 102.822 247.217 102.991 247.049C103.16 246.88 103.835 246.711 105.017 246.711C106.03 246.711 107.887 246.711 110.589 246.711V281.323C110.589 282.336 110.589 283.349 110.758 284.193C110.926 285.037 111.095 285.713 111.433 286.219C111.771 286.726 112.108 287.232 112.784 287.401C113.29 287.57 114.134 287.739 114.978 287.739C115.823 287.739 116.498 287.739 117.173 287.57C117.849 287.401 118.524 287.232 118.862 287.063V248.23C118.862 247.724 119.031 247.386 119.199 247.217C119.368 247.049 120.044 246.88 121.057 246.88C122.07 246.88 123.927 246.88 126.459 246.88V292.466C125.615 292.973 124.265 293.648 122.239 294.154C120.212 294.492 117.68 294.83 114.81 294.83Z" fill="#293B6B"/>
<path d="M140.136 294.154V248.062C140.136 247.555 140.305 247.217 140.473 247.049C140.642 246.88 141.318 246.711 141.993 246.711H148.578C150.097 246.711 151.448 246.88 152.799 247.217C154.149 247.555 155.331 248.062 156.513 248.737C157.526 249.581 158.539 250.594 159.046 251.945C159.721 253.296 160.059 255.153 160.059 257.348C160.059 259.711 159.721 261.569 159.046 263.088C158.37 264.608 157.695 265.79 156.682 266.634C155.669 267.478 154.825 267.985 153.812 268.153C154.656 268.322 155.5 268.491 156.344 268.66C157.188 268.998 158.033 269.504 158.877 270.179C159.721 270.855 160.227 271.868 160.734 273.05C161.24 274.232 161.409 275.92 161.409 277.946C161.409 279.803 161.24 281.492 160.903 283.011C160.565 284.531 160.227 286.05 159.552 287.401C158.877 288.752 158.033 289.933 157.188 290.946C156.175 291.96 154.993 292.635 153.643 293.31C152.292 293.817 150.604 294.154 148.746 294.154H140.136V294.154ZM147.733 265.452H149.084C149.591 265.452 150.097 265.114 150.435 264.608C150.773 264.101 151.11 263.257 151.279 262.413C151.448 261.4 151.617 260.387 151.617 259.036C151.617 257.517 151.448 256.335 151.279 255.491C151.11 254.646 150.773 254.14 150.435 253.802C150.097 253.464 149.76 253.464 149.253 253.464H147.733V265.452V265.452ZM147.733 287.57H149.084C149.591 287.57 150.097 287.401 150.435 286.894C150.773 286.557 151.11 285.881 151.448 285.206C151.786 284.362 151.954 283.518 152.123 282.505C152.292 281.492 152.292 280.141 152.292 278.79C152.292 277.271 152.292 276.089 152.123 275.076C151.954 274.232 151.786 273.556 151.448 273.05C151.11 272.543 150.773 272.205 150.435 272.037C150.097 271.868 149.591 271.868 149.084 271.868H147.565V287.57H147.733Z" fill="#293B6B"/>
<path d="M173.735 294.154V248.062C173.904 247.217 174.411 246.711 175.086 246.711H179.982C180.658 246.711 181.164 247.217 181.333 248.062V292.804C181.333 293.31 181.164 293.648 180.995 293.817C180.827 293.986 180.151 294.154 179.138 294.154C178.125 294.154 176.268 294.154 173.735 294.154ZM176.099 275.751C175.255 275.751 174.917 275.582 174.748 275.413C174.58 275.076 174.58 274.569 174.58 273.894V248.062C174.748 247.217 175.086 246.711 175.761 246.711H181.671C184.541 246.711 186.905 247.049 188.931 247.893C190.957 248.737 192.308 250.088 193.321 252.114C194.334 254.14 194.84 257.01 194.84 260.724C194.84 263.764 194.502 266.296 193.658 268.322C192.983 270.348 191.97 271.868 190.619 272.881C189.437 274.063 187.918 274.738 186.567 275.245C185.047 275.751 183.528 275.92 182.008 275.92H176.099V275.751ZM181.333 268.829H182.684C183.359 268.829 184.034 268.66 184.541 268.153C185.047 267.647 185.385 266.803 185.723 265.621C186.061 264.439 186.229 262.582 186.229 260.218C186.229 258.53 186.061 257.179 185.892 256.166C185.723 255.153 185.385 254.309 184.879 253.971C184.372 253.464 183.866 253.296 183.19 253.296H181.333V268.829ZM191.801 294.323C191.295 294.323 190.619 294.323 189.775 294.323C188.931 294.323 188.255 294.154 187.411 294.154C187.242 290.102 186.905 286.894 186.398 284.362C185.892 281.829 185.216 279.803 184.372 278.284C183.528 276.764 182.684 275.413 181.502 274.232C181.164 273.556 181.333 273.05 182.008 272.881L186.229 270.517C186.905 270.517 187.411 270.686 187.58 271.192C189.1 272.712 190.45 274.232 191.463 275.92C192.476 277.608 193.321 279.803 194.165 282.673C195.009 285.544 195.515 288.752 195.684 292.804C195.684 293.479 195.515 293.817 195.178 294.154C194.84 294.154 193.658 294.323 191.801 294.323Z" fill="#293B6B"/>
<path d="M208.009 294.154V250.088C208.009 248.906 208.178 248.23 208.346 247.724C208.515 247.217 209.191 247.049 210.373 246.88C211.386 246.711 213.243 246.711 215.775 246.711V292.804C215.775 293.31 215.606 293.648 215.438 293.817C215.269 293.986 214.593 294.154 213.58 294.154C212.399 294.154 210.541 294.154 208.009 294.154Z" fill="#293B6B"/>
<path d="M240.764 294.83C238.569 294.83 236.712 294.492 235.023 293.817C233.335 293.141 232.153 291.791 231.309 290.102C230.296 288.245 229.62 285.713 229.283 282.505C228.776 279.297 228.607 275.245 228.607 270.179C228.607 264.101 229.114 259.205 229.958 255.659C230.971 252.114 232.322 249.75 234.179 248.231C236.036 246.711 238.569 246.036 241.439 246.036C243.634 246.036 245.491 246.373 247.011 247.218C248.53 247.893 249.712 249.244 250.725 250.932C251.738 252.789 252.414 255.153 252.751 258.192C253.089 261.231 253.427 265.114 253.427 269.842C253.427 276.258 252.92 281.154 252.076 284.868C251.232 288.414 249.712 291.115 247.855 292.635C246.167 293.986 243.803 294.83 240.764 294.83ZM241.27 286.894C242.452 286.894 243.296 286.388 243.803 285.206C244.309 284.024 244.816 282.336 244.985 279.803C245.154 277.271 245.322 274.063 245.322 270.179C245.322 266.296 245.322 263.088 245.154 260.725C244.985 258.361 244.647 256.672 244.141 255.491C243.634 254.478 242.79 253.971 241.608 253.971C240.595 253.971 239.751 254.478 239.075 255.659C238.4 256.841 238.062 258.698 237.894 261.231C237.725 263.932 237.556 267.309 237.556 271.868C237.556 275.413 237.725 278.284 237.894 280.479C238.062 282.673 238.4 284.362 239.075 285.375C239.244 286.388 240.088 286.894 241.27 286.894Z" fill="#293B6B"/>
<path d="M278.582 294.83C275.881 294.83 273.855 294.492 272.166 293.817C270.647 293.141 269.296 292.128 268.452 290.946C267.608 289.765 267.101 288.245 266.763 286.557C266.426 284.868 266.426 283.18 266.426 281.323V248.062C266.426 247.555 266.595 247.217 266.763 247.049C266.932 246.88 267.608 246.711 268.79 246.711C269.803 246.711 271.66 246.711 274.361 246.711V281.323C274.361 282.336 274.361 283.349 274.53 284.193C274.699 285.037 274.868 285.713 275.205 286.219C275.543 286.726 275.881 287.232 276.556 287.401C277.063 287.57 277.907 287.739 278.751 287.739C279.595 287.739 280.271 287.739 280.946 287.57C281.621 287.401 282.297 287.232 282.634 287.063V248.23C282.634 247.724 282.803 247.386 282.972 247.217C283.141 247.049 283.816 246.88 284.829 246.88C285.842 246.88 287.699 246.88 290.232 246.88V292.466C289.388 292.973 288.037 293.648 286.011 294.154C283.985 294.492 281.452 294.83 278.582 294.83Z" fill="#293B6B"/>
<path d="M311.675 294.83C308.636 294.83 306.441 294.323 304.921 293.479C303.402 292.635 302.726 291.453 302.726 290.271C302.726 289.427 302.895 288.583 303.064 287.57C303.402 286.557 303.739 285.544 304.415 284.7C305.09 285.375 306.103 285.881 307.116 286.219C308.298 286.726 309.48 286.894 310.662 286.894C312.519 286.894 313.87 286.388 314.545 285.544C315.22 284.531 315.558 283.349 315.558 281.829C315.558 280.647 315.389 279.466 314.883 278.453C314.376 277.439 313.701 276.089 312.519 274.569L306.272 266.296C304.753 264.27 303.739 262.413 303.233 260.893C302.726 259.374 302.558 257.854 302.558 256.335C302.558 253.296 303.571 250.763 305.597 248.906C307.623 247.049 310.662 246.036 314.545 246.036C317.922 246.036 320.454 246.373 321.805 247.049C323.156 247.724 323.831 248.568 323.831 249.75C323.831 250.425 323.662 251.101 323.494 251.776C323.325 252.451 322.818 253.296 322.143 253.971C321.805 253.633 320.961 253.465 319.948 253.127C318.766 252.789 317.584 252.62 316.233 252.62C314.545 252.62 313.194 252.958 312.35 253.465C311.337 253.971 311 254.815 311 255.997C311 257.01 311.168 258.023 311.506 258.867C311.844 259.712 312.519 260.725 313.363 262.075L319.948 270.348C321.636 272.374 322.649 274.232 323.156 275.92C323.662 277.608 324 279.466 324 281.323C324 283.518 323.662 285.713 322.987 287.739C322.312 289.765 321.13 291.453 319.273 292.635C317.584 294.154 315.052 294.83 311.675 294.83Z" fill="#293B6B"/>
<path d="M34.1055 333.831V308.337C34.1055 308.168 34.1055 307.999 34.2743 307.999C34.4431 307.999 34.4431 307.83 34.612 307.83H35.625L35.7938 309.856L35.4562 311.545C35.4562 312.389 35.4562 313.233 35.4562 313.908C35.4562 314.584 35.4562 315.428 35.4562 316.272C35.4562 317.116 35.4562 317.96 35.4562 318.636C35.4562 319.48 35.4562 320.155 35.4562 320.662C35.4562 321.168 35.4562 321.675 35.4562 321.844V332.987C35.4562 333.156 35.4562 333.325 35.2873 333.325C35.2873 333.325 35.1185 333.493 34.7808 333.493C35.1185 333.831 34.7808 333.831 34.1055 333.831ZM40.6901 328.766L38.4953 321.844C38.4953 321.844 38.3264 321.506 38.1576 320.831C37.9887 320.324 37.8199 319.48 37.4822 318.636C37.1446 317.792 36.9757 316.947 36.638 315.934C36.3004 315.09 36.1315 314.077 35.7938 313.402C35.4562 312.558 35.2873 311.713 34.9497 310.7L35.625 307.83L39.846 321.506C39.846 321.675 40.0148 322.012 40.1836 322.35C40.3525 322.688 40.5213 323.363 40.6901 323.87C40.859 324.376 41.0278 325.052 41.3655 325.896C41.5343 325.052 41.872 324.376 42.0409 323.87C42.2097 323.363 42.3785 322.857 42.5474 322.35C42.7162 321.844 42.7162 321.506 42.885 321.506L47.106 308.168L47.7813 310.7C47.4437 311.713 47.2748 312.726 46.9372 313.402C46.7683 314.246 46.4306 315.09 46.093 315.934C45.7553 316.778 45.5864 317.792 45.2488 318.467C45.0799 319.311 44.7423 319.986 44.5734 320.493C44.4046 320.999 44.2357 321.337 44.2357 321.506L42.0409 328.091C42.0409 328.259 41.872 328.428 41.7032 328.428H40.6901V328.766ZM46.7683 333.831V322.519C46.7683 322.35 46.7683 321.844 46.7683 321.168C46.7683 320.493 46.7683 319.818 46.7683 318.973C46.7683 318.129 46.7683 317.285 46.7683 316.441C46.7683 315.597 46.7683 314.752 46.7683 313.908C46.7683 313.064 46.7683 312.22 46.7683 311.376L46.4306 310.869V308.505C46.4306 308.505 46.4306 308.337 46.5995 308.168C46.7683 307.999 46.7683 307.999 46.9372 307.999C47.2748 307.999 47.6125 307.999 47.7813 307.999C47.9502 307.999 48.119 307.999 48.119 307.999V333.493C48.119 333.662 48.119 333.831 48.119 333.831C48.119 333.831 47.9502 334 47.6125 334C47.6125 333.831 47.2748 333.831 46.7683 333.831Z" fill="#293B6B"/>
<path d="M58.249 334.338C57.4048 334.338 56.5606 334.169 55.8852 334C55.2099 333.831 54.5345 333.325 53.8592 332.818C53.3527 332.143 52.8461 331.299 52.5085 330.286C52.1708 329.104 52.002 327.584 52.002 325.727C52.002 323.363 52.1708 321.337 52.6773 319.987C53.015 318.636 53.5215 317.454 54.1968 316.779C54.8722 316.103 55.5475 315.597 56.3917 315.428C57.2359 315.259 57.9113 315.09 58.7555 315.09C60.4438 315.09 61.6257 315.597 62.3011 316.61C62.9764 317.623 63.3141 319.142 63.3141 320.831C63.3141 321.506 63.3141 322.35 63.3141 323.026C63.3141 323.701 63.1453 324.545 63.1453 325.052C62.1322 325.221 60.9504 325.389 59.9373 325.558C58.9243 325.727 57.7424 325.727 56.7294 325.727C55.7164 325.727 54.5345 325.727 53.3527 325.727V324.208C54.5345 324.208 55.5475 324.208 56.3917 324.208C57.2359 324.208 58.249 324.208 59.0931 324.039C60.1062 324.039 60.9504 323.87 61.6257 323.701C61.6257 323.195 61.7946 322.857 61.7946 322.35C61.7946 322.013 61.7946 321.506 61.7946 321.169C61.7946 319.649 61.6257 318.467 61.1192 317.623C60.7815 316.779 59.9373 316.441 58.7555 316.441C58.249 316.441 57.7424 316.61 57.0671 316.779C56.3917 316.948 56.0541 317.285 55.5475 317.961C55.041 318.636 54.7034 319.48 54.3657 320.662C54.028 321.844 53.8592 323.532 53.8592 325.727C53.8592 327.247 54.028 328.429 54.1968 329.442C54.3657 330.286 54.7034 331.13 55.2099 331.468C55.5476 331.974 56.0541 332.312 56.7294 332.481C57.2359 332.649 57.9113 332.649 58.5866 332.649C59.4308 332.649 60.275 332.481 61.1192 332.312C61.9634 332.143 62.6387 331.805 63.1453 331.299C63.1453 331.468 63.3141 331.636 63.3141 331.974C63.3141 332.143 63.3141 332.312 63.3141 332.481C63.3141 332.649 63.1453 332.987 62.6387 333.325C62.1322 333.663 61.6257 333.831 60.7815 334C59.9373 334.169 59.0931 334.338 58.249 334.338Z" fill="#293B6B"/>
<path d="M72.2627 334.338C71.4185 334.338 70.5744 334.169 69.899 334C69.2236 333.831 68.5483 333.325 68.0418 332.818C67.5353 332.312 67.0288 331.299 66.6911 330.117C66.3534 328.935 66.1846 327.246 66.1846 325.22C66.1846 322.857 66.5222 320.999 67.0288 319.48C67.5353 317.96 68.3795 316.947 69.3925 316.272C70.4055 315.597 71.4185 315.259 72.6004 315.259C73.2758 315.259 73.7823 315.259 74.4576 315.428C75.133 315.597 75.4707 315.765 75.8083 316.103V307.83C75.8083 307.492 75.8083 307.324 75.9772 307.155C76.146 306.986 76.3148 306.986 76.4837 306.986C76.8214 306.986 77.159 306.986 77.4967 306.986V333.493C76.8214 333.831 76.146 334 75.3018 334.338C74.4576 334.675 73.2758 334.338 72.2627 334.338ZM72.4316 332.649C73.1069 332.649 73.6134 332.649 74.2888 332.48C74.9641 332.312 75.3018 332.143 75.8083 331.805V317.285C75.4707 316.947 74.9641 316.778 74.6265 316.61C74.2888 316.441 73.7823 316.441 73.1069 316.441C72.4316 316.441 71.7562 316.61 71.2497 316.947C70.5744 317.285 70.0678 317.791 69.5613 318.467C69.0548 319.142 68.7171 319.986 68.5483 320.999C68.2106 322.012 68.2106 323.363 68.2106 324.883C68.2106 326.571 68.3795 327.922 68.5483 328.935C68.7171 329.948 69.0548 330.792 69.3925 331.299C69.7302 331.805 70.2367 332.143 70.7432 332.312C71.2497 332.649 71.7562 332.649 72.4316 332.649Z" fill="#293B6B"/>
<path d="M82.7309 311.714C82.3932 311.714 82.2244 311.545 82.0556 311.376C81.8867 311.207 81.8867 310.7 81.8867 310.194C81.8867 309.687 82.0556 309.35 82.2244 309.181C82.3932 308.843 82.7309 308.843 83.0686 308.843C83.4063 308.843 83.7439 309.012 83.9128 309.181C84.0816 309.35 84.0816 309.856 84.0816 310.363C84.0816 310.869 83.9128 311.207 83.7439 311.545C83.4063 311.545 83.2374 311.714 82.7309 311.714ZM82.0556 333.831V316.103C82.0556 315.766 82.0556 315.597 82.2244 315.428C82.3932 315.259 82.5621 315.259 82.7309 315.259C82.8997 315.259 83.2374 315.259 83.7439 315.259V333.325C83.7439 333.494 83.7439 333.662 83.7439 333.662C83.7439 333.662 83.5751 333.831 83.4063 333.831C82.8997 333.831 82.5621 333.831 82.0556 333.831Z" fill="#293B6B"/>
<path d="M93.1987 334.338C92.3545 334.338 91.6792 334.169 91.0038 334C90.3285 333.831 89.8219 333.325 89.3154 332.649C88.8089 331.974 88.4713 331.13 88.1336 329.948C87.7959 328.766 87.7959 327.078 87.7959 325.052C87.7959 322.857 87.9647 321 88.4712 319.649C88.9778 318.298 89.4843 317.285 90.1596 316.61C90.835 315.934 91.5103 315.428 92.3545 315.259C93.1987 315.09 93.8741 314.921 94.7183 314.921C95.5624 314.921 96.2378 315.09 96.9131 315.428C97.5885 315.766 97.9262 316.103 97.9262 316.441C97.9262 316.61 97.9262 316.779 97.9262 316.947C97.9262 317.116 97.7573 317.285 97.7573 317.454C97.4197 317.285 97.082 316.947 96.5755 316.779C96.069 316.61 95.5624 316.441 94.8871 316.441C94.3806 316.441 93.8741 316.61 93.1987 316.779C92.6922 316.947 92.0168 317.285 91.5103 317.96C91.0038 318.467 90.6661 319.48 90.3285 320.493C89.9908 321.675 89.822 323.194 89.822 325.052C89.822 326.74 89.9908 327.922 90.1596 328.935C90.3285 329.948 90.6661 330.623 91.0038 331.13C91.3415 331.636 91.848 331.974 92.3545 332.312C92.861 332.481 93.5364 332.649 94.0429 332.649C94.8871 332.649 95.5624 332.481 96.2378 332.312C96.9131 331.974 97.4197 331.805 97.5885 331.467C97.5885 331.636 97.7573 331.805 97.7573 331.974C97.7573 332.143 97.7573 332.312 97.7573 332.481C97.7573 332.818 97.4197 333.156 96.5755 333.662C95.3936 334 94.3806 334.338 93.1987 334.338Z" fill="#293B6B"/>
<path d="M105.187 334.338C104.512 334.338 103.836 334.338 103.161 334.169C102.486 334 101.979 333.831 101.473 333.494C100.966 333.156 100.628 332.649 100.291 331.805C99.953 331.13 99.7842 330.117 99.7842 328.766C99.7842 327.416 99.953 326.402 100.291 325.558C100.628 324.714 100.966 324.208 101.641 323.701C102.148 323.363 102.823 323.026 103.499 322.857C104.174 322.688 104.849 322.688 105.694 322.688C106.2 322.688 106.707 322.688 107.382 322.857C107.888 322.857 108.395 323.026 108.901 323.195C108.901 322.35 108.901 321.675 108.901 321.169C108.901 320.662 108.901 320.155 108.901 319.818C108.901 318.974 108.733 318.298 108.564 317.792C108.226 317.285 107.888 316.948 107.382 316.948C106.875 316.779 106.369 316.779 105.694 316.779C104.512 316.779 103.33 316.948 102.317 317.116C101.304 317.285 100.628 317.454 100.122 317.792C100.122 317.623 99.953 317.454 99.953 317.285C99.953 317.116 99.953 316.948 99.953 316.779C99.953 316.61 99.953 316.441 99.953 316.441C99.953 316.441 100.122 316.272 100.122 316.103C100.46 315.935 101.304 315.597 102.317 315.428C103.33 315.259 104.68 315.09 106.031 315.09C107.551 315.09 108.564 315.428 109.408 316.103C110.252 316.779 110.59 317.961 110.59 319.649V322.013C110.59 323.363 110.59 324.714 110.59 326.065C110.59 327.416 110.59 328.597 110.59 329.779C110.59 330.961 110.59 331.974 110.421 332.987C110.083 333.156 109.408 333.494 108.733 333.831C107.72 334.169 106.538 334.338 105.187 334.338ZM105.525 332.818C106.2 332.818 106.875 332.649 107.382 332.481C107.888 332.312 108.395 332.143 108.564 331.805C108.564 331.299 108.733 330.623 108.733 329.779C108.733 328.935 108.733 328.091 108.733 327.078C108.733 326.065 108.733 325.221 108.733 324.376C108.395 324.208 107.888 324.208 107.382 324.039C106.875 324.039 106.369 323.87 106.031 323.87C105.356 323.87 104.849 323.87 104.343 324.039C103.836 324.208 103.33 324.376 102.992 324.714C102.654 325.052 102.148 325.558 101.979 326.065C101.641 326.74 101.641 327.584 101.641 328.597C101.641 329.61 101.81 330.286 101.979 330.792C102.148 331.299 102.486 331.805 102.823 331.974C103.161 332.143 103.667 332.481 104.005 332.481C104.512 332.818 105.018 332.818 105.525 332.818Z" fill="#293B6B"/>
<path d="M114.472 333.831V307.493C114.472 307.155 114.472 306.986 114.641 306.817C114.809 306.648 114.978 306.648 115.147 306.648C115.316 306.648 115.654 306.648 116.16 306.648V333.494C116.16 333.663 116.16 333.831 116.16 333.831C116.16 333.831 115.991 334 115.822 334C115.485 333.831 115.147 333.831 114.472 333.831Z" fill="#293B6B"/>
<path d="M127.305 333.831V308.337C127.305 308.168 127.305 307.999 127.474 307.999C127.642 307.999 127.642 307.83 127.811 307.83H128.655C128.824 307.83 128.993 307.999 129.162 308.337V333.325C129.162 333.493 129.162 333.662 129.162 333.662C129.162 333.662 128.993 333.831 128.655 333.831C128.149 333.831 127.811 333.831 127.305 333.831ZM127.98 322.857C127.642 322.857 127.474 322.857 127.474 322.688C127.474 322.519 127.474 322.35 127.474 322.181V308.505C127.474 308.337 127.474 308.168 127.474 308.168C127.474 308.168 127.474 307.999 127.642 307.999H131.357C132.876 307.999 134.227 308.337 135.071 308.843C135.915 309.518 136.591 310.194 137.097 311.376C137.435 312.389 137.773 313.571 137.773 314.921C137.773 316.272 137.604 317.454 137.266 318.467C136.928 319.48 136.591 320.324 135.915 320.831C135.409 321.506 134.565 322.012 133.889 322.35C133.045 322.688 132.201 322.857 131.188 322.857H127.98V322.857ZM128.655 321.168H131.357C132.37 321.168 133.383 320.999 134.058 320.493C134.734 319.986 135.24 319.311 135.578 318.298C135.915 317.285 136.084 316.103 136.084 314.752C136.084 313.739 135.915 312.895 135.747 312.051C135.409 311.207 135.071 310.532 134.396 310.194C133.721 309.856 132.876 309.518 131.694 309.518H128.655V321.168Z" fill="#293B6B"/>
<path d="M141.149 333.831V316.61C141.994 316.103 142.838 315.597 143.682 315.428C144.526 315.09 145.37 315.09 146.046 315.09C146.89 315.09 147.565 315.259 148.072 315.428C148.578 315.597 148.747 315.935 148.747 316.272C148.747 316.441 148.747 316.61 148.747 316.779C148.747 316.948 148.578 317.116 148.578 317.285C148.241 317.116 147.903 316.948 147.565 316.948C147.228 316.779 146.721 316.779 146.383 316.779C145.708 316.779 145.202 316.948 144.526 317.116C143.851 317.285 143.344 317.623 143.007 317.961V333.663C143.007 333.831 143.007 334 143.007 334C143.007 334 142.838 334.169 142.5 334.169C141.994 333.831 141.656 333.831 141.149 333.831Z" fill="#293B6B"/>
<path d="M156.006 334.338C155.331 334.338 154.656 334.338 153.98 334.169C153.305 334 152.798 333.831 152.292 333.494C151.785 333.156 151.448 332.649 151.11 331.805C150.772 331.13 150.604 330.117 150.604 328.766C150.604 327.416 150.772 326.402 151.11 325.558C151.448 324.714 151.785 324.208 152.461 323.701C152.967 323.363 153.643 323.026 154.318 322.857C154.993 322.688 155.669 322.688 156.513 322.688C157.019 322.688 157.526 322.688 158.201 322.857C158.708 322.857 159.214 323.026 159.721 323.195C159.721 322.35 159.721 321.675 159.721 321.169C159.721 320.662 159.721 320.155 159.721 319.818C159.721 318.974 159.552 318.298 159.383 317.792C159.045 317.285 158.708 316.948 158.201 316.948C157.695 316.779 157.188 316.779 156.513 316.779C155.331 316.779 154.149 316.948 153.136 317.116C152.123 317.285 151.448 317.454 150.941 317.792C150.941 317.623 150.772 317.454 150.772 317.285C150.772 317.116 150.772 316.948 150.772 316.779C150.772 316.61 150.772 316.441 150.772 316.441C150.772 316.441 150.941 316.272 150.941 316.103C151.279 315.935 152.123 315.597 153.136 315.428C154.149 315.259 155.5 315.09 156.851 315.09C158.37 315.09 159.383 315.428 160.227 316.103C161.071 316.779 161.409 317.961 161.409 319.649V322.013C161.409 323.363 161.409 324.714 161.409 326.065C161.409 327.416 161.409 328.597 161.409 329.779C161.409 330.961 161.409 331.974 161.24 332.987C160.903 333.156 160.227 333.494 159.552 333.831C158.37 334.169 157.357 334.338 156.006 334.338ZM156.344 332.818C157.019 332.818 157.695 332.649 158.201 332.481C158.708 332.312 159.214 332.143 159.383 331.805C159.383 331.299 159.552 330.623 159.552 329.779C159.552 328.935 159.552 328.091 159.552 327.078C159.552 326.065 159.552 325.221 159.552 324.376C159.214 324.208 158.708 324.208 158.201 324.039C157.695 324.039 157.188 323.87 156.851 323.87C156.175 323.87 155.669 323.87 155.162 324.039C154.656 324.208 154.149 324.376 153.811 324.714C153.474 325.052 152.967 325.558 152.798 326.065C152.461 326.74 152.461 327.584 152.461 328.597C152.461 329.61 152.63 330.286 152.798 330.792C152.967 331.299 153.305 331.805 153.643 331.974C153.98 332.143 154.487 332.481 154.824 332.481C155.331 332.818 155.837 332.818 156.344 332.818Z" fill="#293B6B"/>
<path d="M170.19 334.338C169.346 334.338 168.67 334.169 167.995 334C167.32 333.831 166.813 333.325 166.307 332.649C165.8 331.974 165.462 331.13 165.125 329.948C164.787 328.766 164.787 327.078 164.787 325.052C164.787 322.857 164.956 321 165.462 319.649C165.969 318.298 166.475 317.285 167.151 316.61C167.826 315.934 168.502 315.428 169.346 315.259C170.19 315.09 170.865 314.921 171.709 314.921C172.554 314.921 173.229 315.09 173.904 315.428C174.58 315.766 174.917 316.103 174.917 316.441C174.917 316.61 174.917 316.779 174.917 316.947C174.917 317.116 174.749 317.285 174.749 317.454C174.411 317.285 174.073 316.947 173.567 316.779C173.06 316.61 172.554 316.441 171.878 316.441C171.372 316.441 170.865 316.61 170.19 316.779C169.683 316.947 169.008 317.285 168.502 317.96C167.995 318.467 167.657 319.48 167.32 320.493C166.982 321.675 166.813 323.194 166.813 325.052C166.813 326.74 166.982 327.922 167.151 328.935C167.32 329.948 167.657 330.623 167.995 331.13C168.333 331.636 168.839 331.974 169.346 332.312C169.852 332.481 170.528 332.649 171.034 332.649C171.878 332.649 172.554 332.481 173.229 332.312C173.904 331.974 174.411 331.805 174.58 331.467C174.58 331.636 174.749 331.805 174.749 331.974C174.749 332.143 174.749 332.312 174.749 332.481C174.749 332.818 174.411 333.156 173.567 333.662C172.385 334 171.372 334.338 170.19 334.338Z" fill="#293B6B"/>
<path d="M182.684 334.338C181.671 334.338 180.995 334 180.489 333.494C179.982 332.987 179.813 332.312 179.645 331.468C179.476 330.623 179.476 329.61 179.476 328.428V316.947H176.605C176.605 316.441 176.605 316.103 176.605 315.934C176.605 315.766 176.605 315.597 176.774 315.597C176.774 315.597 176.943 315.428 177.112 315.428H179.476V309.519C179.476 309.181 179.476 309.012 179.645 309.012C179.813 308.843 179.813 308.843 180.151 308.843C180.32 308.843 180.658 308.843 181.164 308.843V315.597H185.892C185.892 316.103 185.892 316.441 185.892 316.61C185.892 316.779 185.892 316.947 185.723 317.116C185.723 317.116 185.554 317.285 185.385 317.285H181.164V328.935C181.164 329.779 181.164 330.455 181.333 331.13C181.333 331.805 181.502 332.312 181.839 332.649C182.177 332.987 182.515 333.156 183.19 333.156C183.697 333.156 184.203 333.156 184.541 332.987C184.879 332.818 185.216 332.649 185.723 332.481C185.723 332.649 185.892 332.818 185.892 332.987C185.892 333.156 185.892 333.325 185.892 333.494C185.892 333.831 185.723 334 185.385 334.169C185.047 334.338 184.71 334.507 184.372 334.507C183.528 334.169 183.19 334.338 182.684 334.338Z" fill="#293B6B"/>
<path d="M189.605 311.714C189.267 311.714 189.098 311.545 188.93 311.376C188.761 311.207 188.761 310.7 188.761 310.194C188.761 309.687 188.93 309.35 189.098 309.181C189.267 308.843 189.605 308.843 189.943 308.843C190.28 308.843 190.618 309.012 190.787 309.181C190.956 309.35 190.956 309.856 190.956 310.363C190.956 310.869 190.787 311.207 190.618 311.545C190.28 311.545 190.111 311.714 189.605 311.714ZM188.93 333.831V316.103C188.93 315.766 188.93 315.597 189.098 315.428C189.267 315.259 189.436 315.259 189.605 315.259C189.774 315.259 190.111 315.259 190.618 315.259V333.325C190.618 333.494 190.618 333.662 190.618 333.662C190.618 333.662 190.449 333.831 190.28 333.831C189.774 333.831 189.436 333.831 188.93 333.831Z" fill="#293B6B"/>
<path d="M200.073 334.338C199.06 334.338 198.385 334 197.878 333.494C197.372 332.987 197.203 332.312 197.034 331.468C196.865 330.623 196.865 329.61 196.865 328.428V316.947H193.995C193.995 316.441 193.995 316.103 193.995 315.934C193.995 315.766 193.995 315.597 194.164 315.597C194.164 315.597 194.333 315.428 194.502 315.428H196.865V309.519C196.865 309.181 196.865 309.012 197.034 309.012C197.203 308.843 197.203 308.843 197.541 308.843C197.71 308.843 198.047 308.843 198.554 308.843V315.597H203.281C203.281 316.103 203.281 316.441 203.281 316.61C203.281 316.779 203.281 316.947 203.112 317.116C203.112 317.116 202.944 317.285 202.775 317.285H198.385V328.935C198.385 329.779 198.385 330.455 198.554 331.13C198.554 331.805 198.723 332.312 199.06 332.649C199.398 332.987 199.736 333.156 200.411 333.156C200.917 333.156 201.424 333.156 201.762 332.987C202.099 332.818 202.437 332.649 202.944 332.481C202.944 332.649 203.112 332.818 203.112 332.987C203.112 333.156 203.112 333.325 203.112 333.494C203.112 333.831 202.944 334 202.606 334.169C202.268 334.338 201.93 334.507 201.593 334.507C200.917 334.169 200.58 334.338 200.073 334.338Z" fill="#293B6B"/>
<path d="M206.997 311.714C206.659 311.714 206.49 311.545 206.321 311.376C206.152 311.207 206.152 310.7 206.152 310.194C206.152 309.687 206.321 309.35 206.49 309.181C206.659 308.843 206.997 308.843 207.334 308.843C207.672 308.843 208.01 309.012 208.178 309.181C208.347 309.35 208.347 309.856 208.347 310.363C208.347 310.869 208.178 311.207 208.01 311.545C207.672 311.545 207.503 311.714 206.997 311.714ZM206.321 333.831V316.103C206.321 315.766 206.321 315.597 206.49 315.428C206.659 315.259 206.828 315.259 206.997 315.259C207.165 315.259 207.503 315.259 208.01 315.259V333.325C208.01 333.494 208.01 333.662 208.01 333.662C208.01 333.662 207.841 333.831 207.672 333.831C207.165 333.831 206.828 333.831 206.321 333.831Z" fill="#293B6B"/>
<path d="M217.294 334.338C216.45 334.338 215.606 334.169 214.93 334C214.255 333.831 213.58 333.325 213.073 332.649C212.567 331.974 212.229 330.961 211.891 329.779C211.554 328.429 211.554 326.74 211.554 324.714C211.554 321.337 212.06 318.805 213.242 317.285C214.424 315.766 215.775 315.09 217.801 315.09C219.151 315.09 220.164 315.428 221.009 315.935C221.853 316.441 222.528 317.454 222.866 318.805C223.204 320.155 223.541 322.182 223.541 324.714C223.541 328.091 223.035 330.455 222.022 331.974C220.84 333.494 219.32 334.338 217.294 334.338ZM217.294 332.818C218.138 332.818 218.983 332.481 219.658 331.974C220.333 331.468 220.84 330.455 221.177 329.273C221.515 328.091 221.684 326.571 221.684 324.545C221.684 322.35 221.515 320.662 221.177 319.48C220.84 318.298 220.333 317.454 219.827 317.116C219.151 316.61 218.476 316.441 217.632 316.441C216.788 316.441 215.944 316.779 215.437 317.285C214.762 317.792 214.255 318.636 213.917 319.818C213.58 321 213.411 322.688 213.411 324.883C213.411 326.571 213.58 327.922 213.749 328.935C213.917 329.948 214.255 330.792 214.593 331.299C214.93 331.805 215.437 332.312 215.944 332.481C216.112 332.649 216.788 332.818 217.294 332.818Z" fill="#293B6B"/>
<path d="M226.919 333.831V316.272C227.594 316.103 228.101 315.766 228.776 315.597C229.451 315.428 230.127 315.259 230.802 315.09C231.478 314.921 232.153 314.921 232.828 314.921C234.179 314.921 235.192 315.09 235.867 315.428C236.543 315.766 237.049 316.441 237.387 317.116C237.725 317.792 237.725 318.805 237.725 319.987V333.325C237.725 333.494 237.725 333.662 237.725 333.662C237.725 333.662 237.556 333.831 237.218 333.831C237.049 333.831 236.543 333.831 236.036 333.831V320.493C236.036 319.142 235.867 318.129 235.361 317.454C235.023 316.779 234.01 316.441 232.659 316.441C231.984 316.441 231.309 316.441 230.465 316.61C229.62 316.779 228.945 316.947 228.27 317.285V333.325C228.27 333.494 228.27 333.662 228.27 333.662C228.27 333.662 228.101 333.831 227.763 333.831C227.932 333.831 227.425 333.831 226.919 333.831Z" fill="#293B6B"/>
<path d="M247.518 334.338C246.673 334.338 245.829 334.169 245.154 334C244.478 333.831 243.803 333.325 243.128 332.818C242.621 332.143 242.115 331.299 241.777 330.286C241.439 329.104 241.271 327.584 241.271 325.727C241.271 323.363 241.439 321.337 241.946 319.987C242.284 318.636 242.79 317.454 243.465 316.779C244.141 316.103 244.816 315.597 245.66 315.428C246.504 315.259 247.18 315.09 248.024 315.09C249.712 315.09 250.894 315.597 251.57 316.61C252.245 317.623 252.583 319.142 252.583 320.831C252.583 321.506 252.583 322.35 252.583 323.026C252.583 323.701 252.414 324.545 252.414 325.052C251.401 325.221 250.219 325.389 249.206 325.558C248.193 325.727 247.011 325.727 245.998 325.727C244.985 325.727 243.803 325.727 242.621 325.727V324.208C243.803 324.208 244.816 324.208 245.66 324.208C246.504 324.208 247.518 324.208 248.362 324.039C249.375 324.039 250.219 323.87 250.894 323.701C250.894 323.195 251.063 322.857 251.063 322.35C251.063 322.013 251.063 321.506 251.063 321.169C251.063 319.649 250.894 318.467 250.388 317.623C249.881 316.779 249.206 316.441 248.024 316.441C247.518 316.441 247.011 316.61 246.336 316.779C245.66 316.948 245.323 317.285 244.816 317.961C244.31 318.636 243.972 319.48 243.634 320.662C243.297 321.844 243.128 323.532 243.128 325.727C243.128 327.247 243.297 328.429 243.465 329.442C243.634 330.286 243.972 331.13 244.478 331.468C244.816 331.974 245.323 332.312 245.998 332.481C246.504 332.649 247.18 332.649 247.855 332.649C248.699 332.649 249.544 332.481 250.388 332.312C251.232 332.143 251.907 331.805 252.414 331.299C252.414 331.468 252.583 331.636 252.583 331.974C252.583 332.143 252.583 332.312 252.583 332.481C252.583 332.649 252.414 332.987 251.907 333.325C251.401 333.663 250.894 333.831 250.05 334C249.206 334.169 248.362 334.338 247.518 334.338Z" fill="#293B6B"/>
<path d="M256.128 333.831V316.61C256.972 316.103 257.816 315.597 258.66 315.428C259.505 315.259 260.349 315.09 261.024 315.09C261.868 315.09 262.544 315.259 263.05 315.428C263.557 315.597 263.726 315.935 263.726 316.272C263.726 316.441 263.726 316.61 263.726 316.779C263.726 316.948 263.557 317.116 263.557 317.285C263.219 317.116 262.881 316.948 262.544 316.948C262.206 316.948 261.7 316.779 261.362 316.779C260.687 316.779 260.18 316.948 259.505 317.116C258.829 317.285 258.323 317.623 257.985 317.961V333.663C257.985 333.831 257.985 334 257.985 334C257.985 334 257.816 334.169 257.479 334.169C256.972 333.831 256.634 333.831 256.128 333.831Z" fill="#293B6B"/>
<path d="M270.479 334.338C268.959 334.338 267.946 334.169 267.102 333.831C266.258 333.494 265.92 333.156 265.92 332.818C265.92 332.65 265.92 332.481 265.92 332.312C265.92 332.143 266.089 331.974 266.258 331.805C266.764 332.143 267.439 332.481 268.115 332.65C268.79 332.818 269.634 332.818 270.479 332.818C271.829 332.818 272.842 332.65 273.686 331.974C274.531 331.468 274.868 330.624 274.868 329.611C274.868 328.766 274.699 328.091 274.362 327.584C274.024 326.909 273.349 326.403 272.673 325.896L268.621 323.195C267.608 322.519 266.764 321.844 266.595 321.169C266.258 320.493 266.089 319.987 266.089 319.311C266.089 318.467 266.426 317.623 266.933 317.116C267.439 316.441 268.115 316.103 269.128 315.766C269.972 315.428 271.154 315.259 272.336 315.259C273.518 315.259 274.362 315.428 275.037 315.597C275.713 315.766 276.219 316.103 276.557 316.272C276.894 316.61 277.063 316.779 277.063 316.948C277.063 317.285 276.894 317.623 276.557 317.961C275.881 317.623 275.206 317.285 274.531 317.116C273.855 316.948 273.18 316.779 272.336 316.779C271.154 316.779 270.141 316.948 269.297 317.454C268.452 317.961 268.115 318.636 268.115 319.48C268.115 319.987 268.284 320.324 268.452 320.831C268.621 321.169 269.297 321.675 269.972 322.35L274.193 325.221C275.037 325.896 275.713 326.571 276.219 327.416C276.726 328.091 276.894 328.935 276.894 329.948C276.894 331.637 276.388 332.818 275.375 333.663C274.362 334.507 272.336 334.338 270.479 334.338Z" fill="#293B6B"/>
<path d="M210.71 201.631C210.71 150.135 60.9505 142.875 60.9505 142.875C73.4446 186.267 113.459 217.839 160.903 217.839C176.942 217.839 192.306 214.125 205.813 207.709C240.763 190.994 264.907 155.201 264.907 114.004H56.8984C56.8984 56.5993 103.498 10 160.903 10C202.099 10 237.724 33.975 254.608 68.9244C254.608 68.9244 105.355 106.744 105.355 26.2084" stroke="#293B6B" stroke-width="18.5722" stroke-miterlimit="10"/>
</svg>
