<?xml version="1.0" encoding="utf-8"?>
<!-- Generator: Adobe Illustrator 26.0.3, SVG Export Plug-In . SVG Version: 6.00 Build 0)  -->
<svg version="1.1" id="Layer_1" xmlns="http://www.w3.org/2000/svg" xmlns:xlink="http://www.w3.org/1999/xlink" x="0px" y="0px"
	 viewBox="0 0 600 600" style="enable-background:new 0 0 600 600;" xml:space="preserve">
<style type="text/css">
	.st0{fill:#26CEC1;}
	.st1{fill:none;stroke:#3F3D56;stroke-miterlimit:10;}
	.st2{fill:#1E2C4F;}
	.st3{fill:#FBBEBE;}
	.st4{opacity:0.1;enable-background:new    ;}
	.st5{fill:#D7E5F2;}
	.st6{fill:#AADCD2;enable-background:new    ;}
	.st7{fill:#36334A;}
	.st8{fill:#2A4084;}
	.st9{fill:#696880;}
</style>
<path class="st0" d="M524,316.9c-9.3-1.3-15.8-10-14.5-19.3s10-15.8,19.3-14.5c3.2,0.4,6.1,1.8,8.6,3.8l-4.5,7.6l7.2-4.7
	c2.7,3.6,3.9,8.1,3.2,12.6c-0.2,1.6-0.7,3.1-1.3,4.5C538.9,313.9,531.5,317.9,524,316.9z"/>
<path class="st1" d="M457.9,397.1c4.8-5.9,2.3-14.7-1.2-21.5c-3.5-6.8-8-13.9-6.5-21.4c2.2-10.7,14.8-14.9,25-18.8
	c7.6-2.9,14.8-6.8,21.4-11.4c2.7-1.9,5.3-3.9,7.2-6.6c2.7-3.8,3.5-8.6,4.3-13.3c2.5-15.4,4.7-30.9,6.5-46.4"/>
<path class="st1" d="M524.4,314.5c-9.3-1.3-15.8-10-14.5-19.3s10-15.8,19.3-14.5c3.2,0.4,6.1,1.8,8.6,3.8l-4.5,7.6l7.2-4.7
	c2.7,3.6,3.9,8.1,3.2,12.6c-0.2,1.6-0.7,3.1-1.3,4.5C539.3,311.5,532,315.6,524.4,314.5z"/>
<path class="st0" d="M531.6,263.3c0.8-5.8-1.3-11.5-5.7-15.3l-5.2,6.7l1.8-9c-8.4-4.3-18.7-1-23,7.4c-4.3,8.4-1,18.7,7.4,23
	c8.4,4.3,18.7,1,23-7.4C530.7,267,531.3,265.2,531.6,263.3L531.6,263.3z"/>
<path class="st1" d="M532.2,260.2c0.8-5.8-1.3-11.5-5.7-15.3l-5.2,6.7l1.8-9c-8.4-4.3-18.7-1-23,7.4c-4.3,8.4-1,18.7,7.4,23
	c8.4,4.3,18.7,1,23-7.4C531.3,263.9,531.9,262.1,532.2,260.2L532.2,260.2z"/>
<path class="st0" d="M477.9,336.9c-9.3-1.3-15.8-10-14.5-19.3c1.1-7.9,7.5-13.9,15.4-14.6l-1.4,6.9l5.2-6.8c0,0,0,0,0,0
	c9.3,1.3,15.8,10,14.5,19.3S487.2,338.3,477.9,336.9L477.9,336.9z"/>
<path class="st1" d="M478.6,333.8c-9.3-1.3-15.8-10-14.5-19.3c1.1-7.9,7.5-13.9,15.4-14.6l-1.4,6.9l5.2-6.8c0,0,0,0,0,0
	c9.3,1.3,15.8,10,14.5,19.3C496.6,328.7,487.9,335.2,478.6,333.8L478.6,333.8L478.6,333.8z"/>
<path class="st0" d="M480.2,370.3c-5.8,7.4-16.5,8.7-23.9,2.9c-7.4-5.8-8.7-16.5-2.9-23.9s16.5-8.7,23.9-2.9
	c3.4,2.6,5.6,6.4,6.3,10.6l-12.1,6.5l12-0.5C483,365.7,481.9,368.2,480.2,370.3z"/>
<path class="st1" d="M480.7,368c-5.8,7.4-16.5,8.7-23.9,2.9c-7.4-5.8-8.7-16.5-2.9-23.9s16.5-8.7,23.9-2.9c3.4,2.6,5.6,6.4,6.3,10.6
	l-12.1,6.5l12-0.5C483.5,363.3,482.3,365.8,480.7,368z"/>
<ellipse class="st2" cx="279.7" cy="406.8" rx="70.9" ry="80.4"/>
<path class="st3" d="M370.7,139.1c-17,7.4-35.6,10.7-54.2,9.4c4.8-3.4,7.8-8.9,9.1-14.6c1.2-5.7,0.8-11.7-0.5-17.4
	c-0.2-0.7-0.2-1.4,0-2c0.5-0.7,1.3-1,2.2-1c7.2-1,27.8-5.3,33.2,0.8c2.6,2.9,1.6,8.6,2.5,12.1C363.5,127.8,368.5,140.1,370.7,139.1z
	"/>
<path class="st4" d="M370.7,139.1c-17,7.4-35.6,10.7-54.2,9.4c4.8-3.4,7.8-8.9,9.1-14.6c1.2-5.7,0.8-11.7-0.5-17.4
	c-0.2-0.7-0.2-1.4,0-2c0.5-0.7,1.3-1,2.2-1c7.2-1,27.8-5.3,33.2,0.8c2.6,2.9,1.6,8.6,2.5,12.1C363.5,127.8,368.5,140.1,370.7,139.1z
	"/>
<path class="st2" d="M310.8,261.2l-106.6,3.3c0,0-94.3,91.8-16.4,119.7c0,0,95.9,15.6,118.9-2.5
	C306.7,381.8,335.4,268.6,310.8,261.2z M305.9,291.5l-114,7.4c0,0,8.2-27.9,41-27.9s69.7-7.4,73,9.8S305.9,291.5,305.9,291.5z"/>
<path class="st3" d="M226.8,246.5c-5.3-0.8-11.1-1.3-15.8,1.4c-1.6,1-3,2.1-4.3,3.4c-1.9,1.7-3.7,3.5-5.6,5.2
	c-1.3,1.3-2.8,2.7-3.1,4.5c-0.7,3.8,3.6,6.8,7.5,6.6c3.8-0.1,7.3-2.2,10.9-3.5c7.3-2.5,34,1.8,35.5-6
	C253.7,248.2,232.7,247.4,226.8,246.5z"/>
<path class="st5" d="M276.6,240.2c-7,3.5-14.5,5.7-22.3,6.3c-1.2,0-2.4,0.3-3.5,0.8c-0.7,0.4-1.2,1-1.5,1.8
	c-2.7,5.7-4.4,11.9-5,18.2c-0.2,0.6,0.1,1.3,0.6,1.7c0.7,0.4,1.6,0.6,2.4,0.5c12.8,0.8,25.6,1.2,38.4,1.3c0.6,0,1.1,0,1.7-0.2
	c0.4-0.2,0.7-0.5,0.8-1c3-7.5,4.4-15.5,4.2-23.6C292,236.5,289.2,233.5,276.6,240.2z"/>
<path class="st6" d="M276.6,240.2c-7,3.5-14.5,5.7-22.3,6.3c-1.2,0-2.4,0.3-3.5,0.8c-0.7,0.4-1.2,1-1.5,1.8
	c-2.7,5.7-4.4,11.9-5,18.2c-0.2,0.6,0.1,1.3,0.6,1.7c0.7,0.4,1.6,0.6,2.4,0.5c12.8,0.8,25.6,1.2,38.4,1.3c0.6,0,1.1,0,1.7-0.2
	c0.4-0.2,0.7-0.5,0.8-1c3-7.5,4.4-15.5,4.2-23.6C292,236.5,289.2,233.5,276.6,240.2z"/>
<path class="st2" d="M419.9,326l-140.2-4.9l32.8-138.6c0,0,131.2-9.8,127.9,23.8S419.9,326,419.9,326z"/>
<path class="st7" d="M284.5,392.2c0,0-84.4,14.9-114.7-29.3s114.8-20.5,114.8-20.5l12.3,33.6L284.5,392.2z"/>
<circle class="st2" cx="259.2" cy="541.7" r="38.5"/>
<ellipse class="st8" cx="262.9" cy="541.7" rx="24.2" ry="27.9"/>
<path class="st8" d="M469.9,178.4c0,0-32-18-33.6,24.6l-27.1,198.5h11.5L451.9,189c0,0,15.6,2.5,18,2.5S469.9,178.4,469.9,178.4z"/>
<path class="st2" d="M501.8,200.3L501.8,200.3c-1.1,4.1-5.4,6.5-9.4,5.3c-0.3-0.1-0.6-0.2-1-0.3l-37.1-15.9l6.7-14.8l36.6,16.7
	C501,192.8,502.8,196.6,501.8,200.3z"/>
<path class="st8" d="M276.4,387.5c0,0-59-6.6-75.4,50s-14.8,100-28.7,96.8c-13.9-3.3-43.5-14.8-43.5-14.8l2.5,17.2
	c0,0,51.7,26.2,59.9-1.6c8.2-27.9,13.1-130.4,59.9-127.9c46.7,2.5,54.9-2.5,54.9-2.5L276.4,387.5z"/>
<path class="st2" d="M164,360.4c0,0-45.9,5.7-64,39.4S73,494.1,73,494.1h17.2c0,0,9.8-120.6,61.5-114L164,360.4z"/>
<path class="st2" d="M132.9,548.2l-73-45.1c0,0-4.1-16.4,42.6-23c0,0,88.4,30.9,79.9,42.5C173.9,534.3,145.2,552.3,132.9,548.2z"/>
<polygon class="st8" points="246.1,401.4 246.1,497.4 256.7,497.4 256.7,399.8 "/>
<path class="st2" d="M261.6,460.5c0,0,20.5,80.4,7.4,91.8c0,0-17.2-50.8-30.3-44.3l4.1-47.6H261.6z"/>
<circle class="st3" cx="341.2" cy="93.9" r="32"/>
<path class="st0" d="M335.1,142.4c13,2.2,24.3-12.9,37.4-10.8c2.8,0.6,5.6,1.7,8,3.2c19.4,11,33.4,29.7,38.4,51.4
	c1.5,6.6,2,13.7-0.7,19.9c-1.5,3.3-3.8,6.1-6.1,8.8c-8.7,10.1-18.2,20.2-30.6,25.1c-1.2,4.2,0,8.7,1.4,12.9
	c6.1,17.2-3.6,35.7-4.1,53.9c-0.1,3.1,0,6.5-1.9,9c-2.2,2.7-6,3.2-9.5,3.4c-31.7,1.8-63.3-3.1-94.6-7.9c-0.8-0.1-1.6-0.3-2.3-0.8
	c-1-0.8-1.2-2.3-1.4-3.6c-1.2-6.9,5-12.5,2.1-18.8c-5-10.9,5.9-22.9,9-34.4s4.4-13.6,6.6-25.4c0.8-4.4-1.5-17.7-0.8-22.1
	c2.4-14.5,0.6-30.9,8.2-43.5c4.6-7.5,3.4-13.4,11.6-16.6C314.2,142.3,325.9,143.5,335.1,142.4z"/>
<path class="st9" d="M190.7,333.1c-9.5,1.8-19.7,3.6-27,10c-4.5,3.9-7.5,9.2-10.4,14.3l-29.9,52.7c-9.1,16.1-18.2,32.2-26.5,48.7
	c-0.7,1.2-1.1,2.6-1.2,4c0,2,1.4,3.7,2.7,5.1c9.6,9.9,23.2,14.7,36.9,13c2.1-10.6,12.2-17.7,17.1-27.3c2.7-5.3,3.8-11.3,5.6-16.9
	c6.6-21.2,22.1-38.3,37.3-54.6c7.1-7.7,14.5-15.5,23.7-20.6c10.8-5.9,23.3-7.6,35.4-10c12.1-2.5,24.6-6.2,33.1-15.1
	c7.3-7.7,10.8-18.4,9.5-29c-7.7-0.5-16.3-1.5-23.8,0.9c-8.7,2.9-17,6.8-25.7,9.8C228.8,324.4,209.9,329.4,190.7,333.1z"/>
<path class="st6" d="M190.7,333.1c-9.5,1.8-19.7,3.6-27,10c-4.5,3.9-7.5,9.2-10.4,14.3l-29.9,52.7c-9.1,16.1-18.2,32.2-26.5,48.7
	c-0.7,1.2-1.1,2.6-1.2,4c0,2,1.4,3.7,2.7,5.1c9.6,9.9,23.2,14.7,36.9,13c2.1-10.6,12.2-17.7,17.1-27.3c2.7-5.3,3.8-11.3,5.6-16.9
	c6.6-21.2,22.1-38.3,37.3-54.6c7.1-7.7,14.5-15.5,23.7-20.6c10.8-5.9,23.3-7.6,35.4-10c12.1-2.5,24.6-6.2,33.1-15.1
	c7.3-7.7,10.8-18.4,9.5-29c-7.7-0.5-16.3-1.5-23.8,0.9c-8.7,2.9-17,6.8-25.7,9.8C228.8,324.4,209.9,329.4,190.7,333.1z"/>
<path class="st8" d="M61.8,500.2c-1.1,0.8-1.9,1.8-2.4,3c-1.1,3.7,3.5,6.3,7.2,7.4c8.3,2.4,17.2,4.8,25.5,2.3
	c5.1-1.5,9.5-4.8,14.6-6.4c7.5-2.4,15.6-1,23.4,0.3c1.7-9.8,0.6-19.8-3.4-28.9c-2.5-5.7-12.5-8.5-18.4-8.8
	c-6.5-0.3-8.7,4.5-12.5,8.9C86.8,488.9,72.3,491.4,61.8,500.2z"/>
<path class="st0" d="M196.8,348.8c-4.6,1.8-9.3,3.7-12.9,7.1c-3.8,3.6-6,8.5-8.1,13.3c-6,14.2-11.1,28.8-15.3,43.6
	c-2.1,7.5-4,15.1-6.8,22.3c-5.7,14.5-15.3,28.3-14.4,43.8c0,1.9,0.5,3.7,1.5,5.4c1.3,1.9,3.5,2.9,5.6,3.8l10.9,4.7
	c5.9,2.5,13,5,18.2,1.3c3.5-2.4,4.9-6.9,6-11c3.8-14.9,6.2-30.5,13-44.3c7.7-15.6,20.8-28.2,27.7-44.2c1-2.3,1.9-4.7,3.8-6.2
	c1.6-1.3,3.6-1.8,5.6-2.2c41-9.3,82.8-14.4,123.5-25.1c5.8-1.5,11.8-3.3,15.9-7.6c5.7-6,6.2-15.1,6.4-23.4
	c0.1-5.2,0.1-10.8-3.1-14.9c-3.6-4.6-10-5.9-15.8-6.5c-22.3-2.3-42.9,1.4-64.9,4.1c-20.1,2.5-40.4,13.8-59.1,21.2
	C221.9,338.9,209.3,343.8,196.8,348.8z"/>
<path class="st8" d="M146.3,497.1c-3.1,7.3-6.4,14.9-12.6,19.8c-2.6,2-6,4.1-6.1,7.4c-0.1,3.5,3.6,5.8,6.8,7
	c8.4,3,17.9,3.7,26.1,0.1c5.6-2.4,10.2-6.6,14.7-10.7c1.4-1.2,2.8-2.5,3.4-4.3c0.4-1.4,0.6-3,0.4-4.5c-0.5-9.1-2.2-18.1-4.8-26.8
	c-0.2-0.7-17.9-2.9-19.4-2.5C149.8,483.9,148.2,492.6,146.3,497.1z"/>
<path class="st8" d="M420.7,285.8l-106.6,3.3c0,0-94.3,91.8-16.4,119.7c0,0,95.9,15.6,118.9-2.5
	C416.6,406.4,445.3,293.2,420.7,285.8z M415.8,316.2l-114,7.4c0,0,8.2-27.9,41-27.9s69.7-7.4,73,9.8
	C419.1,322.7,415.8,316.2,415.8,316.2z"/>
<ellipse class="st2" cx="396.5" cy="458.8" rx="107" ry="121.4"/>
<ellipse class="st8" cx="401.5" cy="458.8" rx="80.8" ry="90.2"/>
<path class="st2" d="M422.4,457.6c0-1.6-0.2-3.1-0.5-4.7l60.3-30.2l-4.1-9l-60.9,29.7c-0.6-0.6-1.3-1.2-2-1.7l0,0l17.8-88.7
	l-15.8-0.4L406.8,440l1,0.2c-0.8,0.2-1.6,0.4-2.4,0.8l-52.7-54.1l-7.4,10.4l54.2,49.8c-1.4,2.6-2.2,5.5-2.4,8.4l-76.4,31.2
	l-1.6,13.1l79.6-33.5c0.7,1.8,1.8,3.5,3.1,5l-24.5,83.4h9l20.5-80c0.9,0.3,1.9,0.4,2.8,0.5c1.9,0,3.7-0.6,5.2-1.6l42.8,56.5l13.1-9
	l-50.1-54.7C421.8,463.6,422.4,460.6,422.4,457.6z"/>
<path class="st2" d="M304,73.7c1.4-3.6,6.1-5.1,7.6-8.7c1.6-3.9-0.9-8.8,1.3-12.3c2.2-3.6,7.5-3.2,11.7-2.5
	c4.9,0.8,10.2,1.4,14.8-0.6c2-0.9,3.9-2.2,5.8-3.2c3.1-1.6,6.7-2.4,10.2-2.2c0.8,0,1.6,0.2,2.3,0.5c0.7,0.5,1.2,1.1,1.5,1.9
	c1.4,3.1,1.6,7,4.2,9.2c1.3,1.1,2.9,1.6,4.4,2.3c7.1,3.4,11.4,11,10.6,18.9c-0.3,1.8-0.6,3.6-0.6,5.4c0.1,4,2.7,8,1.4,11.7
	c-1,2.8-3.9,4.4-6.7,5.3c-0.8,0.3-1.7,0.4-2.5,0.1c-1.5-0.6-1.7-2.5-2.2-4c-1.3-4-5.2-6.7-9.4-6.6c-3.3,0.1-6.7,2-9.8,0.9
	c-1.5-0.5-2.7-1.7-4-2.8c-2.8-2.5-6.2-4.5-9.9-5c-3.7-0.5-7.8,0.7-10,3.8c-0.9,1.2-1.4,2.7-2.3,3.9C314.8,101,300.9,81.5,304,73.7z"
	/>
<path class="st3" d="M321.1,268.6c-2.8-0.4-5.7,0.7-7.6,2.8c-7.2,6.5-14.8,13.9-16.1,23.5c-0.2,0.9-0.1,1.8,0.3,2.6
	c0.7,1.1,2.2,1.4,3.5,1.4c6.8,0.1,13.3-2.8,17.8-7.9c1.2-1.4,2.4-3,4-3.8c1.5-0.6,3.2-0.8,4.8-0.6c4.5,0.1,14.8,2.5,18.7,0.2
	c4.1-2.3,3-9.7,1.1-13.3C343,265.2,328.8,268.5,321.1,268.6z"/>
<path class="st0" d="M421.2,197.7c2.8,8.9,1.1,18.9,5,27.3c2.6,5.6,7.5,10.1,9,16.1c1.4,5.6-0.5,11.7-3.8,16.5
	c-3.4,4.8-8,8.4-12.7,11.9c-5.1,3.8-10.5,7.5-16.5,9.6c-6,2-12.5,2.4-18.8,2.6l-42.1,1.9l-7.8-23.3l27.5-10.8
	c2.7-1.1,5.5-2.2,8.5-2.4c5.1-0.4,11.3,1.5,14.5-2.4c1-1.4,1.7-3.1,1.9-4.9c2.7-13.7,0.3-28.1,4.4-41.4c2-6.6,7.9-19.8,15.9-21
	C414.7,176.3,419.3,191.6,421.2,197.7z"/>
</svg>
